<?xml version="1.0" encoding="utf-8"?>
<!-- Generator: Adobe Illustrator 16.0.0, SVG Export Plug-In . SVG Version: 6.00 Build 0)  -->
<!DOCTYPE svg PUBLIC "-//W3C//DTD SVG 1.1//EN" "http://www.w3.org/Graphics/SVG/1.1/DTD/svg11.dtd">
<svg version="1.1" id="Camada_1" xmlns="http://www.w3.org/2000/svg" xmlns:xlink="http://www.w3.org/1999/xlink" x="0px" y="0px"
	 width="76.711px" height="81.414px" viewBox="0 0 76.711 81.414" enable-background="new 0 0 76.711 81.414" xml:space="preserve">
<path fill="#BF0411" d="M28.642,40.646c0.897-2.111,2.807-3.379,5.102-3.379h3.645v-3.922c-0.158,0.007-0.314,0.021-0.476,0.021
	c-2.184,0-4.049-0.771-5.594-2.317c-1.544-1.545-2.317-3.41-2.317-5.594c0-2.183,0.772-4.047,2.317-5.594
	c1.545-1.545,3.41-2.317,5.594-2.317c2.183,0,4.049,0.772,5.592,2.317c0.809,0.808,1.398,1.705,1.783,2.687h6.011
	c1.498,0,2.853,0.564,3.922,1.634c1.052,1.05,1.632,2.441,1.632,3.917v2.553l3.928-0.594c0.247-0.041,0.452-0.174,0.618-0.402
	c0.165-0.227,0.248-0.462,0.248-0.71v-6.861c0-0.268-0.083-0.51-0.248-0.726c-0.166-0.216-0.382-0.345-0.65-0.386l-5.656-0.865
	c-0.308-0.989-0.731-2-1.266-3.03c0.368-0.515,0.924-1.241,1.668-2.179c0.744-0.937,1.267-1.622,1.577-2.056
	c0.163-0.225,0.247-0.462,0.247-0.709c0-0.288-0.072-0.515-0.217-0.68c-0.738-1.051-2.44-2.802-5.098-5.253
	c-0.248-0.206-0.506-0.31-0.771-0.31c-0.311,0-0.559,0.094-0.744,0.278L45.1,9.479c-0.846-0.434-1.771-0.814-2.78-1.143
	l-0.865-5.687c-0.021-0.267-0.142-0.49-0.356-0.665c-0.216-0.174-0.47-0.262-0.756-0.262h-6.861c-0.599,0-0.97,0.288-1.113,0.865
	C32.1,3.616,31.8,5.533,31.471,8.334c-0.969,0.31-1.907,0.699-2.813,1.174l-4.265-3.306c-0.268-0.206-0.536-0.309-0.803-0.309
	c-0.454,0-1.427,0.737-2.92,2.208c-1.495,1.474-2.508,2.581-3.044,3.323c-0.185,0.268-0.278,0.504-0.278,0.71
	c0,0.247,0.104,0.495,0.31,0.742c1.38,1.668,2.483,3.089,3.307,4.265c-0.515,0.949-0.917,1.897-1.205,2.843l-5.749,0.866
	c-0.228,0.04-0.422,0.175-0.586,0.401c-0.165,0.227-0.247,0.462-0.247,0.71v6.857c0,0.268,0.082,0.511,0.247,0.727
	c0.165,0.216,0.38,0.346,0.649,0.387l5.656,0.834c0.289,1.01,0.711,2.03,1.268,3.06c-0.371,0.514-0.927,1.241-1.668,2.178
	c-0.743,0.938-1.268,1.622-1.577,2.055c-0.166,0.227-0.249,0.463-0.249,0.71c0,0.269,0.073,0.502,0.217,0.709
	c0.804,1.114,2.503,2.845,5.098,5.193c0.228,0.228,0.486,0.341,0.773,0.341c0.31,0,0.567-0.095,0.773-0.279l3.931-2.981
	C28.376,41.383,28.482,41.013,28.642,40.646z"/>
<g>
	<path fill="#FFFFFF" d="M35.508,52.862c0.354-0.354,0.532-0.773,0.532-1.26c0-0.483-0.178-0.903-0.532-1.259
		c-0.354-0.354-0.774-0.53-1.259-0.53c-0.485,0-0.904,0.176-1.259,0.53c-0.355,0.355-0.532,0.775-0.532,1.259
		c0,0.486,0.177,0.905,0.532,1.26c0.355,0.355,0.774,0.53,1.259,0.53C34.733,53.393,35.153,53.218,35.508,52.862z"/>
</g>
<g>
	<path fill="#FFFFFF" d="M27.815,52.862c0.354-0.354,0.532-0.773,0.532-1.26c0-0.483-0.178-0.903-0.532-1.259
		c-0.355-0.354-0.774-0.53-1.259-0.53c-0.486,0-0.905,0.176-1.259,0.53c-0.356,0.355-0.533,0.775-0.533,1.259
		c0,0.486,0.177,0.905,0.533,1.26c0.354,0.355,0.773,0.53,1.259,0.53C27.041,53.393,27.46,53.218,27.815,52.862z"/>
</g>
<g>
	<path fill="#9A999E" d="M20.122,52.862c0.354-0.354,0.532-0.773,0.532-1.26c0-0.483-0.179-0.903-0.532-1.259
		c-0.354-0.354-0.774-0.53-1.258-0.53c-0.486,0-0.905,0.176-1.26,0.53c-0.355,0.355-0.532,0.775-0.532,1.259
		c0,0.486,0.177,0.905,0.532,1.26c0.354,0.355,0.773,0.53,1.26,0.53C19.348,53.393,19.768,53.218,20.122,52.862z"/>
</g>
<g>
	<path fill="#4F8E3A" d="M32.046,42.129c0.326-0.766,0.892-1.148,1.698-1.148h7.358V28.1c0-0.499,0.183-0.929,0.546-1.293
		c0.365-0.365,0.797-0.546,1.294-0.546H50.3c0.501,0,0.933,0.181,1.296,0.546c0.362,0.364,0.546,0.794,0.546,1.293V40.98h7.359
		c0.806,0,1.37,0.383,1.696,1.148c0.324,0.747,0.192,1.409-0.402,1.984l-12.882,12.88c-0.343,0.362-0.774,0.544-1.293,0.544
		c-0.517,0-0.947-0.179-1.292-0.544l-12.879-12.88C31.856,43.538,31.719,42.877,32.046,42.129z"/>
</g>
<g enable-background="new    ">
	<path fill="#FFFFFF" d="M6.322,69.63c0,0.264-0.064,0.528-0.191,0.792c-0.126,0.267-0.308,0.505-0.544,0.717
		c-0.235,0.212-0.522,0.388-0.855,0.522c-0.333,0.135-0.708,0.198-1.123,0.198c-0.222,0-0.426-0.014-0.615-0.037
		c-0.19-0.026-0.368-0.063-0.533-0.107c-0.166-0.043-0.324-0.099-0.477-0.166c-0.152-0.064-0.305-0.137-0.457-0.215l0.347-1.081
		c0.1,0.069,0.232,0.142,0.398,0.221c0.165,0.08,0.344,0.151,0.54,0.222c0.195,0.067,0.39,0.124,0.586,0.169
		c0.197,0.044,0.378,0.066,0.541,0.066c0.184,0,0.334-0.012,0.453-0.036c0.118-0.023,0.225-0.055,0.319-0.098
		c0.104-0.04,0.188-0.146,0.252-0.313c0.063-0.169,0.094-0.387,0.094-0.653c0-0.249-0.082-0.445-0.245-0.593
		c-0.162-0.146-0.366-0.274-0.61-0.382c-0.244-0.106-0.508-0.214-0.792-0.324c-0.284-0.104-0.549-0.246-0.792-0.417
		c-0.245-0.171-0.448-0.39-0.611-0.658c-0.164-0.267-0.244-0.619-0.244-1.055c0-0.211,0.055-0.433,0.165-0.666
		c0.11-0.235,0.27-0.45,0.48-0.646c0.21-0.198,0.471-0.361,0.78-0.485c0.311-0.125,0.662-0.19,1.056-0.19
		c0.317,0,0.62,0.018,0.911,0.048c0.292,0.032,0.574,0.073,0.848,0.127l-0.221,1.079c-0.127-0.046-0.271-0.091-0.43-0.134
		c-0.161-0.044-0.324-0.079-0.489-0.11c-0.166-0.031-0.327-0.057-0.484-0.075c-0.157-0.02-0.297-0.027-0.418-0.027
		c-0.136,0-0.263,0.007-0.378,0.019c-0.115,0.015-0.221,0.049-0.316,0.107c-0.089,0.052-0.153,0.144-0.192,0.271
		C3.035,65.847,3.015,66,3.015,66.178c0,0.186,0.047,0.337,0.142,0.457c0.095,0.122,0.221,0.229,0.375,0.319
		c0.155,0.092,0.331,0.177,0.529,0.254c0.196,0.076,0.398,0.157,0.605,0.243c0.208,0.088,0.41,0.189,0.608,0.303
		c0.197,0.112,0.373,0.252,0.527,0.417c0.155,0.165,0.281,0.367,0.375,0.602C6.274,69.008,6.322,69.293,6.322,69.63z"/>
	<path fill="#FFFFFF" d="M9.473,66.8c0.231,0,0.457,0.032,0.674,0.098c0.218,0.067,0.418,0.178,0.604,0.331
		c0.183,0.155,0.341,0.365,0.477,0.623c0.135,0.26,0.236,0.586,0.305,0.975v0.063c-0.042,0.058-0.099,0.11-0.169,0.156
		c-0.072,0.048-0.165,0.087-0.281,0.123c-0.114,0.033-0.257,0.067-0.425,0.095c-0.168,0.027-0.37,0.05-0.608,0.066L8.52,69.448
		v0.204c0,0.38,0.101,0.692,0.3,0.938c0.2,0.249,0.5,0.371,0.9,0.371c0.162,0,0.333-0.02,0.511-0.054
		c0.18-0.032,0.35-0.074,0.509-0.122c0.162-0.048,0.309-0.094,0.442-0.145c0.133-0.05,0.233-0.093,0.303-0.131l0.118,0.355
		c-0.146,0.111-0.313,0.226-0.496,0.343c-0.185,0.119-0.38,0.226-0.592,0.319c-0.209,0.095-0.432,0.172-0.666,0.233
		c-0.235,0.061-0.474,0.088-0.721,0.088c-0.289,0-0.559-0.04-0.808-0.129c-0.25-0.086-0.465-0.225-0.648-0.415
		c-0.18-0.188-0.323-0.436-0.427-0.741c-0.106-0.305-0.158-0.673-0.158-1.11c0-0.489,0.059-0.902,0.18-1.241
		c0.122-0.339,0.289-0.612,0.505-0.819c0.216-0.207,0.47-0.359,0.761-0.453C8.822,66.848,9.137,66.8,9.473,66.8z M8.82,67.619
		c-0.038,0.03-0.072,0.09-0.106,0.176c-0.035,0.089-0.066,0.191-0.091,0.31c-0.028,0.119-0.046,0.242-0.062,0.37
		c-0.016,0.129-0.024,0.255-0.024,0.375l1.521-0.072c-0.016-0.142-0.039-0.289-0.069-0.441c-0.032-0.15-0.078-0.291-0.139-0.418
		s-0.136-0.231-0.225-0.316c-0.089-0.084-0.197-0.125-0.323-0.125c-0.088,0-0.172,0.011-0.253,0.031
		C8.968,67.531,8.893,67.568,8.82,67.619z"/>
	<path fill="#FFFFFF" d="M12.793,67.573l-0.521-0.174v-0.293l1.496-1.056h0.38l0.016,0.853h1.474l-0.063,0.535
		c-0.111,0.021-0.245,0.039-0.405,0.055c-0.161,0.017-0.314,0.03-0.46,0.041c-0.174,0.016-0.352,0.031-0.537,0.048v2.727
		c0,0.174,0.032,0.319,0.095,0.438s0.193,0.178,0.395,0.178c0.053,0,0.124-0.004,0.213-0.009c0.089-0.007,0.183-0.014,0.281-0.024
		c0.097-0.011,0.19-0.023,0.284-0.035c0.091-0.013,0.169-0.025,0.233-0.034v0.4c-0.115,0.077-0.25,0.149-0.402,0.226
		c-0.153,0.075-0.314,0.145-0.485,0.205s-0.343,0.109-0.517,0.146c-0.174,0.034-0.339,0.054-0.5,0.054
		c-0.121,0-0.24-0.013-0.356-0.035c-0.116-0.023-0.221-0.069-0.313-0.14c-0.092-0.066-0.167-0.162-0.223-0.287
		c-0.056-0.123-0.084-0.284-0.084-0.485L12.793,67.573L12.793,67.573z"/>
	<path fill="#FFFFFF" d="M17.956,66.903v3.255c0,0.289,0.045,0.503,0.139,0.642c0.094,0.141,0.25,0.21,0.473,0.21
		c0.08,0,0.167-0.012,0.263-0.035c0.095-0.023,0.193-0.056,0.293-0.095c0.101-0.037,0.199-0.085,0.29-0.134
		c0.094-0.049,0.179-0.104,0.258-0.161v-3.682h1.38v4.855h-1.238l-0.126-0.569h-0.016c-0.094,0.064-0.208,0.135-0.342,0.209
		c-0.135,0.076-0.28,0.149-0.435,0.221c-0.154,0.07-0.317,0.132-0.487,0.18c-0.172,0.045-0.339,0.068-0.5,0.068
		c-0.186,0-0.358-0.029-0.517-0.089c-0.162-0.062-0.302-0.149-0.422-0.268c-0.121-0.119-0.217-0.269-0.287-0.448
		c-0.072-0.183-0.107-0.39-0.107-0.628v-3.531H17.956z"/>
	<path fill="#FFFFFF" d="M23.971,67.319c0.193-0.141,0.396-0.263,0.602-0.369c0.207-0.101,0.453-0.151,0.736-0.151
		c0.252,0,0.494,0.043,0.729,0.131c0.233,0.086,0.442,0.224,0.623,0.413c0.18,0.191,0.326,0.435,0.433,0.739
		c0.109,0.302,0.162,0.671,0.162,1.106c0,0.42-0.059,0.795-0.176,1.123c-0.12,0.328-0.287,0.606-0.505,0.835
		s-0.483,0.402-0.796,0.525c-0.314,0.12-0.666,0.181-1.061,0.181c-0.131,0-0.267-0.01-0.403-0.028
		c-0.136-0.018-0.252-0.04-0.346-0.067c0,0.048,0.003,0.129,0.008,0.246c0.004,0.115,0.008,0.232,0.008,0.353v2.5l-1.38,0.231
		v-8.044l1.222-0.211L23.971,67.319z M25.823,69.239c0-0.54-0.088-0.938-0.266-1.195c-0.178-0.258-0.417-0.386-0.716-0.386
		c-0.154,0-0.299,0.016-0.439,0.048c-0.139,0.032-0.278,0.075-0.415,0.135v3.185c0.104,0.025,0.208,0.045,0.312,0.056
		s0.214,0.016,0.328,0.016c0.175,0,0.339-0.016,0.492-0.048c0.153-0.028,0.266-0.085,0.34-0.156
		c0.085-0.085,0.167-0.268,0.247-0.554C25.784,70.05,25.823,69.686,25.823,69.239z"/>
	<path fill="#FFFFFF" d="M35.629,71.759l-0.561-5.541l-2.49,5.541h-0.427l-2.601-5.541l-0.473,5.541h-0.812l0.7-7.316h1.318
		l2.419,5.146l2.302-5.146h1.286l0.765,7.316H35.629z"/>
	<path fill="#FFFFFF" d="M39.059,74.116c-0.247,0.305-0.493,0.527-0.737,0.672s-0.493,0.218-0.745,0.218
		c-0.132,0-0.275-0.011-0.426-0.031c-0.151-0.021-0.275-0.047-0.363-0.079V74.43h0.104c0.167,0,0.363-0.047,0.583-0.142
		c0.22-0.093,0.432-0.23,0.63-0.41c0.111-0.093,0.238-0.22,0.387-0.374c0.146-0.154,0.299-0.323,0.457-0.509
		c0.158-0.185,0.312-0.372,0.461-0.566c0.149-0.196,0.285-0.381,0.407-0.562c-0.189-0.572-0.376-1.104-0.562-1.594
		c-0.184-0.493-0.354-0.927-0.512-1.301c-0.156-0.377-0.298-0.686-0.421-0.924c-0.125-0.239-0.222-0.396-0.297-0.471
		c-0.066-0.068-0.139-0.111-0.212-0.129c-0.074-0.02-0.132-0.028-0.175-0.028H37.6v-0.459c0.058-0.017,0.133-0.028,0.225-0.041
		c0.091-0.014,0.187-0.025,0.288-0.036c0.101-0.01,0.199-0.021,0.292-0.027c0.094-0.009,0.172-0.012,0.236-0.012
		c0.138,0,0.26,0.017,0.37,0.05c0.11,0.034,0.202,0.093,0.276,0.179c0.092,0.094,0.198,0.248,0.307,0.465
		c0.11,0.216,0.225,0.474,0.345,0.775c0.116,0.303,0.238,0.639,0.363,1.01c0.123,0.37,0.242,0.761,0.357,1.17h0.023
		c0.16-0.253,0.286-0.492,0.385-0.717c0.095-0.226,0.175-0.451,0.229-0.67c0.059-0.22,0.1-0.44,0.12-0.663
		c0.022-0.22,0.032-0.453,0.032-0.701c0-0.069-0.007-0.142-0.014-0.217c-0.008-0.075-0.017-0.148-0.026-0.221
		c-0.012-0.071-0.023-0.135-0.037-0.193s-0.026-0.102-0.034-0.127l1.073-0.189c0.025,0.074,0.05,0.183,0.07,0.327
		c0.021,0.145,0.031,0.283,0.031,0.414c0,0.348-0.055,0.698-0.166,1.051c-0.11,0.356-0.255,0.709-0.429,1.063
		c-0.178,0.352-0.37,0.701-0.584,1.047c-0.214,0.347-0.424,0.686-0.628,1.017c-0.219,0.341-0.402,0.626-0.548,0.855
		c-0.143,0.229-0.272,0.426-0.389,0.594c-0.117,0.169-0.228,0.324-0.334,0.47C39.326,73.783,39.201,73.942,39.059,74.116z"/>
	<path fill="#FFFFFF" d="M45.206,68.393l0.191-0.04c0.183-0.043,0.356-0.096,0.519-0.162c0.164-0.065,0.305-0.161,0.422-0.291
		c0.119-0.13,0.212-0.299,0.28-0.509c0.07-0.209,0.104-0.479,0.104-0.805c0-0.488-0.11-0.845-0.331-1.067
		c-0.223-0.224-0.512-0.335-0.869-0.335c-0.087,0-0.181,0.003-0.27,0.009c-0.094,0.005-0.19,0.016-0.289,0.029v6.535H43.56v-7.229
		c0.147-0.011,0.308-0.019,0.481-0.029c0.172-0.011,0.353-0.02,0.541-0.029c0.185-0.008,0.37-0.013,0.559-0.017
		c0.185-0.002,0.365-0.002,0.539-0.002c0.426,0,0.794,0.048,1.105,0.145c0.313,0.097,0.573,0.236,0.775,0.412
		c0.205,0.18,0.358,0.396,0.459,0.651c0.099,0.254,0.149,0.541,0.149,0.863c0,0.337-0.057,0.652-0.165,0.945
		c-0.111,0.296-0.28,0.552-0.509,0.773c-0.229,0.219-0.521,0.393-0.877,0.52c-0.353,0.128-0.774,0.189-1.263,0.189h-0.061
		L45.206,68.393z"/>
	<path fill="#FFFFFF" d="M52.104,67.997c-0.105-0.037-0.217-0.066-0.339-0.09c-0.121-0.023-0.236-0.034-0.347-0.034
		c-0.081,0-0.149,0.006-0.213,0.019c-0.063,0.016-0.122,0.035-0.177,0.068c-0.056,0.032-0.111,0.074-0.167,0.128
		c-0.056,0.05-0.117,0.114-0.185,0.188v3.483h-1.381v-4.854h1.238l0.118,0.771h0.007c0.035-0.058,0.083-0.126,0.136-0.201
		c0.054-0.076,0.109-0.153,0.169-0.229c0.063-0.076,0.123-0.146,0.189-0.208c0.066-0.064,0.133-0.107,0.201-0.134
		c0.121-0.043,0.257-0.07,0.41-0.085c0.154-0.015,0.316-0.021,0.495-0.021L52.104,67.997z"/>
	<path fill="#FFFFFF" d="M55.234,71.853c-0.788,0-1.392-0.213-1.81-0.644c-0.417-0.428-0.627-1.054-0.627-1.879
		c0-0.391,0.052-0.742,0.154-1.054c0.102-0.311,0.256-0.578,0.461-0.796c0.204-0.218,0.459-0.386,0.767-0.504
		c0.304-0.118,0.654-0.178,1.054-0.178c0.804,0,1.41,0.219,1.821,0.652c0.409,0.438,0.614,1.058,0.614,1.862
		c0,0.396-0.051,0.747-0.152,1.059c-0.103,0.314-0.257,0.579-0.462,0.798c-0.205,0.217-0.461,0.385-0.764,0.504
		C55.985,71.794,55.633,71.853,55.234,71.853z M54.234,69.322c0,0.637,0.075,1.103,0.228,1.403c0.151,0.3,0.408,0.451,0.766,0.451
		c0.136,0,0.262-0.015,0.385-0.038c0.122-0.024,0.22-0.058,0.299-0.105c0.054-0.026,0.098-0.091,0.141-0.193
		c0.037-0.104,0.071-0.23,0.101-0.382c0.029-0.152,0.05-0.326,0.064-0.521c0.013-0.194,0.018-0.396,0.018-0.606
		c0-0.619-0.076-1.084-0.23-1.392c-0.155-0.307-0.408-0.461-0.752-0.461c-0.132,0-0.263,0.014-0.387,0.04
		c-0.128,0.026-0.238,0.069-0.332,0.126c-0.052,0.03-0.098,0.097-0.138,0.197c-0.042,0.102-0.07,0.228-0.095,0.38
		c-0.022,0.151-0.039,0.322-0.05,0.512C54.24,68.92,54.234,69.118,54.234,69.322z"/>
	<path fill="#FFFFFF" d="M58.892,66.903h1.381v4.673c0,0.427-0.032,0.814-0.094,1.163c-0.063,0.35-0.158,0.667-0.288,0.953
		c-0.131,0.286-0.294,0.549-0.493,0.788c-0.198,0.239-0.436,0.462-0.709,0.667l-0.394-0.371c0.127-0.151,0.228-0.315,0.305-0.488
		c0.075-0.172,0.135-0.364,0.181-0.571c0.045-0.207,0.075-0.438,0.091-0.69s0.023-0.531,0.023-0.835v-5.288H58.892z M59.554,64.15
		l0.877,0.906l-0.877,0.914l-0.866-0.914L59.554,64.15z"/>
	<path fill="#FFFFFF" d="M63.874,66.8c0.23,0,0.456,0.032,0.675,0.098c0.218,0.067,0.42,0.178,0.603,0.331
		c0.183,0.155,0.341,0.365,0.477,0.623c0.136,0.26,0.236,0.586,0.305,0.975v0.063c-0.043,0.058-0.098,0.11-0.169,0.156
		c-0.071,0.048-0.165,0.087-0.282,0.123c-0.113,0.033-0.255,0.067-0.423,0.095c-0.169,0.027-0.37,0.05-0.607,0.066l-1.529,0.118
		v0.204c0,0.38,0.102,0.692,0.301,0.938c0.199,0.249,0.498,0.371,0.896,0.371c0.164,0,0.334-0.02,0.516-0.054
		c0.178-0.032,0.347-0.074,0.508-0.122c0.158-0.048,0.309-0.094,0.439-0.145c0.136-0.05,0.235-0.093,0.306-0.131l0.117,0.355
		c-0.146,0.111-0.312,0.226-0.495,0.343c-0.187,0.119-0.383,0.226-0.591,0.319c-0.213,0.095-0.433,0.172-0.669,0.233
		c-0.232,0.061-0.475,0.088-0.72,0.088c-0.289,0-0.56-0.04-0.808-0.129c-0.251-0.086-0.467-0.225-0.648-0.415
		c-0.18-0.188-0.324-0.436-0.427-0.741c-0.106-0.305-0.16-0.673-0.16-1.11c0-0.489,0.061-0.902,0.184-1.241
		c0.119-0.339,0.288-0.612,0.503-0.819s0.469-0.359,0.761-0.453C63.225,66.848,63.537,66.8,63.874,66.8z M63.22,67.619
		c-0.036,0.03-0.071,0.09-0.105,0.176c-0.034,0.089-0.063,0.191-0.089,0.31c-0.027,0.119-0.048,0.242-0.065,0.37
		c-0.016,0.128-0.023,0.255-0.023,0.375l1.521-0.072c-0.016-0.142-0.037-0.289-0.069-0.441c-0.034-0.15-0.079-0.291-0.14-0.418
		c-0.062-0.127-0.137-0.231-0.226-0.316c-0.087-0.084-0.197-0.125-0.321-0.125c-0.09,0-0.174,0.011-0.253,0.031
		C63.369,67.531,63.294,67.568,63.22,67.619z"/>
	<path fill="#FFFFFF" d="M70.598,67.942c-0.172-0.089-0.379-0.176-0.617-0.261c-0.241-0.083-0.498-0.124-0.777-0.124
		c-0.115,0-0.232,0.011-0.348,0.035c-0.115,0.023-0.216,0.066-0.301,0.129c-0.093,0.069-0.169,0.233-0.228,0.488
		c-0.059,0.254-0.086,0.653-0.086,1.199c0,0.302,0.022,0.555,0.063,0.763c0.043,0.209,0.105,0.378,0.19,0.506
		c0.085,0.131,0.189,0.224,0.315,0.278c0.124,0.056,0.27,0.083,0.433,0.083c0.256,0,0.525-0.027,0.805-0.083
		c0.278-0.055,0.529-0.129,0.757-0.225l0.125,0.355c-0.266,0.219-0.572,0.4-0.916,0.544c-0.345,0.146-0.724,0.222-1.132,0.222
		c-0.289,0-0.562-0.043-0.817-0.132c-0.256-0.086-0.475-0.225-0.657-0.415c-0.183-0.188-0.328-0.436-0.438-0.741
		c-0.107-0.305-0.16-0.673-0.16-1.11c0-0.416,0.057-0.786,0.17-1.115s0.276-0.606,0.491-0.835c0.215-0.23,0.482-0.403,0.806-0.525
		c0.32-0.12,0.688-0.181,1.102-0.181c0.252,0,0.507,0.018,0.761,0.055c0.255,0.034,0.487,0.079,0.699,0.125L70.598,67.942z"/>
	<path fill="#FFFFFF" d="M71.954,67.573l-0.519-0.174v-0.293l1.495-1.056h0.38l0.016,0.853H74.8l-0.063,0.535
		c-0.11,0.021-0.245,0.039-0.405,0.055c-0.161,0.017-0.314,0.03-0.463,0.041c-0.172,0.016-0.353,0.031-0.536,0.048v2.727
		c0,0.174,0.032,0.319,0.096,0.438c0.062,0.118,0.194,0.178,0.393,0.178c0.052,0,0.124-0.004,0.212-0.009
		c0.089-0.007,0.184-0.014,0.281-0.024c0.095-0.011,0.191-0.023,0.283-0.035c0.09-0.013,0.17-0.025,0.233-0.034v0.4
		c-0.117,0.077-0.252,0.149-0.402,0.226c-0.153,0.075-0.314,0.145-0.486,0.205c-0.17,0.061-0.342,0.109-0.516,0.146
		c-0.174,0.034-0.341,0.054-0.5,0.054c-0.12,0-0.239-0.013-0.354-0.035c-0.118-0.023-0.223-0.069-0.313-0.14
		c-0.093-0.066-0.167-0.162-0.22-0.287c-0.056-0.123-0.087-0.284-0.087-0.485v-3.332H71.954z"/>
</g>
</svg>
