<?xml version="1.0" encoding="utf-8"?>
<!-- Generator: Adobe Illustrator 16.0.0, SVG Export Plug-In . SVG Version: 6.00 Build 0)  -->
<!DOCTYPE svg PUBLIC "-//W3C//DTD SVG 1.1//EN" "http://www.w3.org/Graphics/SVG/1.1/DTD/svg11.dtd">
<svg version="1.1" id="Camada_1" xmlns="http://www.w3.org/2000/svg" xmlns:xlink="http://www.w3.org/1999/xlink" x="0px" y="0px"
	 width="283.855px" height="301.259px" viewBox="0 -219.845 283.855 301.259" enable-background="new 0 -219.845 283.855 301.259"
	 xml:space="preserve">
<path fill="#BF0411" d="M105.084-56.62c3.428-8.063,10.719-12.905,19.484-12.905h13.921v-14.978
	c-0.603,0.028-1.199,0.078-1.816,0.078c-8.34,0-15.464-2.944-21.365-8.849c-5.897-5.9-8.851-13.022-8.851-21.363
	c0-8.338,2.95-15.458,8.851-21.364c5.899-5.9,13.023-8.849,21.365-8.849c8.337,0,15.465,2.948,21.357,8.849
	c3.089,3.084,5.341,6.512,6.811,10.262h22.956c5.722,0,10.895,2.156,14.979,6.242c4.017,4.011,6.232,9.324,6.232,14.959v9.751
	l15-2.268c0.944-0.155,1.728-0.666,2.361-1.535c0.63-0.865,0.947-1.764,0.947-2.711v-26.203c0-1.023-0.317-1.949-0.947-2.773
	c-0.634-0.824-1.458-1.318-2.484-1.473l-21.602-3.303c-1.175-3.776-2.794-7.638-4.834-11.571c1.406-1.965,3.528-4.74,6.37-8.321
	c2.842-3.579,4.838-6.195,6.023-7.851c0.623-0.859,0.943-1.766,0.943-2.709c0-1.098-0.275-1.965-0.827-2.596
	c-2.82-4.013-9.32-10.701-19.469-20.064c-0.948-0.787-1.933-1.182-2.947-1.182c-1.186,0-2.133,0.358-2.842,1.063l-16.761,12.628
	c-3.23-1.656-6.762-3.108-10.618-4.365l-3.305-21.72c-0.082-1.018-0.541-1.871-1.361-2.538c-0.824-0.664-1.794-1.001-2.887-1.001
	h-26.203c-2.286,0-3.705,1.099-4.25,3.303c-1.025,3.933-2.171,11.252-3.426,21.953c-3.699,1.182-7.282,2.67-10.741,4.483
	L88.86-188.167c-1.022-0.787-2.048-1.181-3.067-1.181c-1.732,0-5.449,2.814-11.152,8.435c-5.71,5.628-9.579,9.858-11.627,12.692
	c-0.705,1.024-1.063,1.925-1.063,2.714c0,0.943,0.395,1.889,1.182,2.834c5.271,6.371,9.484,11.799,12.629,16.288
	c-1.968,3.624-3.5,7.245-4.603,10.857l-21.956,3.309c-0.869,0.153-1.611,0.667-2.24,1.533c-0.63,0.867-0.943,1.766-0.943,2.713
	v26.189c0,1.022,0.313,1.951,0.943,2.775c0.629,0.826,1.453,1.32,2.479,1.477l21.601,3.185c1.102,3.858,2.717,7.752,4.841,11.687
	c-1.417,1.964-3.539,4.74-6.372,8.319c-2.839,3.582-4.841,6.195-6.021,7.849c-0.632,0.865-0.949,1.768-0.949,2.712
	c0,1.025,0.277,1.918,0.828,2.708c3.069,4.253,9.559,10.866,19.471,19.833c0.869,0.869,1.855,1.302,2.954,1.302
	c1.182,0,2.165-0.362,2.951-1.067l15.014-11.387C104.071-53.806,104.475-55.219,105.084-56.62z"/>
<g>
	<path fill="#FFFFFF" d="M131.308-9.963c1.354-1.354,2.032-2.954,2.032-4.811c0-1.847-0.679-3.45-2.032-4.808
		c-1.354-1.354-2.958-2.025-4.808-2.025c-1.854,0-3.454,0.671-4.81,2.025c-1.357,1.357-2.032,2.961-2.032,4.808
		c0,1.857,0.675,3.457,2.032,4.811c1.355,1.357,2.956,2.025,4.81,2.025C128.35-7.938,129.953-8.606,131.308-9.963z"/>
</g>
<g>
	<path fill="#FFFFFF" d="M101.929-9.963c1.353-1.354,2.031-2.954,2.031-4.811c0-1.847-0.679-3.45-2.031-4.808
		c-1.355-1.354-2.957-2.025-4.808-2.025c-1.855,0-3.457,0.671-4.808,2.025c-1.359,1.357-2.034,2.961-2.034,4.808
		c0,1.857,0.675,3.457,2.034,4.811c1.351,1.357,2.952,2.025,4.808,2.025C98.972-7.938,100.573-8.606,101.929-9.963z"/>
</g>
<g>
	<path fill="#9A999E" d="M72.547-9.963c1.35-1.354,2.032-2.954,2.032-4.811c0-1.847-0.683-3.45-2.032-4.808
		c-1.354-1.354-2.958-2.025-4.806-2.025c-1.857,0-3.458,0.671-4.812,2.025c-1.355,1.357-2.032,2.961-2.032,4.808
		c0,1.857,0.677,3.457,2.032,4.811c1.354,1.357,2.954,2.025,4.812,2.025C69.589-7.938,71.192-8.606,72.547-9.963z"/>
</g>
<g>
	<path fill="#4F8E3A" d="M118.088-50.956c1.244-2.924,3.407-4.386,6.483-4.386h28.104v-49.194c0-1.906,0.697-3.547,2.085-4.938
		c1.395-1.393,3.043-2.085,4.941-2.085h28.1c1.913,0,3.562,0.69,4.949,2.085c1.384,1.391,2.085,3.032,2.085,4.938v49.194h28.106
		c3.077,0,5.232,1.462,6.479,4.386c1.238,2.853,0.734,5.382-1.537,7.579l-49.197,49.19c-1.31,1.384-2.958,2.078-4.938,2.078
		c-1.973,0-3.617-0.683-4.935-2.078l-49.188-49.19C117.36-45.574,116.838-48.099,118.088-50.956z"/>
</g>
<g enable-background="new    ">
	<path fill="#FFFFFF" d="M19.841,54.075c0,1.007-0.244,2.018-0.729,3.024c-0.481,1.019-1.177,1.928-2.078,2.737
		c-0.898,0.81-1.995,1.481-3.267,1.996c-1.273,0.515-2.704,0.757-4.289,0.757c-0.847,0-1.628-0.053-2.348-0.142
		c-0.726-0.101-1.404-0.243-2.037-0.41c-0.632-0.164-1.236-0.377-1.822-0.635c-0.58-0.246-1.166-0.521-1.746-0.82l1.324-4.129
		c0.38,0.265,0.888,0.541,1.52,0.843c0.63,0.307,1.315,0.578,2.063,0.847c0.744,0.258,1.49,0.474,2.24,0.646
		c0.753,0.168,1.443,0.254,2.066,0.254c0.701,0,1.275-0.045,1.729-0.139c0.45-0.089,0.86-0.208,1.218-0.372
		c0.399-0.153,0.72-0.556,0.962-1.197c0.239-0.646,0.358-1.478,0.358-2.495c0-0.951-0.313-1.701-0.936-2.265
		c-0.619-0.556-1.397-1.048-2.329-1.458c-0.933-0.406-1.941-0.816-3.023-1.238c-1.083-0.399-2.096-0.939-3.025-1.593
		c-0.936-0.652-1.712-1.488-2.333-2.514c-0.625-1.018-0.931-2.364-0.931-4.028c0-0.805,0.211-1.652,0.629-2.543
		c0.421-0.899,1.031-1.72,1.835-2.469c0.804-0.757,1.798-1.38,2.978-1.854c1.188-0.478,2.527-0.728,4.034-0.728
		c1.21,0,2.368,0.067,3.478,0.183c1.115,0.123,2.191,0.279,3.239,0.484l-0.845,4.122c-0.484-0.175-1.033-0.347-1.641-0.511
		c-0.614-0.167-1.236-0.302-1.867-0.421c-0.634-0.119-1.247-0.216-1.848-0.287c-0.601-0.075-1.134-0.104-1.598-0.104
		c-0.521,0-1.003,0.026-1.443,0.071c-0.44,0.056-0.845,0.187-1.208,0.411c-0.339,0.198-0.586,0.548-0.735,1.037
		c-0.149,0.492-0.226,1.078-0.226,1.757c0,0.709,0.179,1.287,0.541,1.745c0.364,0.467,0.843,0.873,1.431,1.22
		c0.591,0.351,1.264,0.675,2.021,0.97c0.75,0.291,1.521,0.601,2.313,0.929c0.796,0.336,1.566,0.724,2.323,1.156
		c0.752,0.429,1.425,0.962,2.012,1.593c0.593,0.63,1.074,1.402,1.432,2.297C19.658,51.699,19.841,52.788,19.841,54.075z"/>
	<path fill="#FFFFFF" d="M31.875,43.267c0.884,0,1.746,0.123,2.576,0.373c0.833,0.257,1.598,0.679,2.307,1.264
		c0.697,0.594,1.304,1.396,1.82,2.38c0.517,0.992,0.9,2.237,1.163,3.723v0.242c-0.162,0.22-0.378,0.421-0.646,0.597
		c-0.274,0.183-0.629,0.332-1.073,0.47c-0.434,0.127-0.983,0.258-1.624,0.361c-0.644,0.104-1.412,0.19-2.324,0.254l-5.837,0.451
		v0.779c0,1.451,0.386,2.645,1.145,3.585c0.763,0.951,1.912,1.417,3.439,1.417c0.617,0,1.273-0.074,1.952-0.205
		c0.687-0.123,1.337-0.283,1.943-0.466c0.617-0.184,1.179-0.358,1.689-0.553c0.509-0.189,0.89-0.354,1.156-0.499l0.451,1.357
		c-0.556,0.425-1.193,0.861-1.895,1.309c-0.705,0.455-1.453,0.861-2.262,1.22c-0.8,0.362-1.65,0.656-2.542,0.892
		c-0.899,0.231-1.809,0.336-2.754,0.336c-1.104,0-2.135-0.153-3.086-0.492c-0.957-0.329-1.775-0.858-2.475-1.586
		c-0.687-0.716-1.232-1.663-1.632-2.83c-0.406-1.164-0.602-2.57-0.602-4.241c0-1.868,0.226-3.446,0.686-4.74
		c0.466-1.294,1.102-2.339,1.928-3.129c0.824-0.791,1.796-1.373,2.907-1.73C29.391,43.449,30.594,43.267,31.875,43.267z
		 M29.381,46.396c-0.144,0.115-0.274,0.343-0.407,0.671c-0.132,0.34-0.251,0.731-0.349,1.183c-0.106,0.455-0.177,0.925-0.237,1.414
		c-0.062,0.492-0.091,0.973-0.091,1.432l5.807-0.276c-0.06-0.54-0.147-1.104-0.263-1.686c-0.121-0.574-0.298-1.111-0.531-1.596
		c-0.233-0.485-0.521-0.885-0.859-1.209c-0.34-0.32-0.754-0.478-1.235-0.478c-0.337,0-0.656,0.041-0.968,0.12
		C29.946,46.06,29.659,46.201,29.381,46.396z"/>
	<path fill="#FFFFFF" d="M44.556,46.221l-1.988-0.664v-1.119l5.712-4.032h1.453l0.06,3.256h5.63l-0.238,2.043
		c-0.424,0.082-0.935,0.149-1.548,0.209c-0.614,0.063-1.199,0.116-1.759,0.157c-0.664,0.06-1.343,0.119-2.05,0.183v10.413
		c0,0.664,0.121,1.22,0.364,1.671c0.242,0.451,0.738,0.679,1.507,0.679c0.203,0,0.472-0.015,0.814-0.033
		c0.34-0.026,0.699-0.053,1.072-0.094c0.369-0.041,0.728-0.089,1.083-0.134c0.35-0.049,0.647-0.098,0.89-0.131v1.529
		c-0.439,0.295-0.954,0.57-1.536,0.861c-0.584,0.287-1.199,0.552-1.852,0.783c-0.653,0.231-1.31,0.418-1.974,0.56
		c-0.663,0.131-1.294,0.205-1.907,0.205c-0.461,0-0.916-0.049-1.361-0.134c-0.444-0.09-0.845-0.266-1.197-0.534
		c-0.351-0.253-0.64-0.618-0.851-1.096c-0.213-0.471-0.32-1.086-0.32-1.854V46.221H44.556z"/>
	<path fill="#FFFFFF" d="M64.274,43.662v12.431c0,1.104,0.171,1.921,0.531,2.45c0.358,0.537,0.955,0.802,1.806,0.802
		c0.304,0,0.638-0.045,1.003-0.134c0.361-0.09,0.738-0.213,1.12-0.362c0.387-0.142,0.76-0.324,1.108-0.511
		c0.359-0.187,0.685-0.399,0.986-0.615V43.662h5.271v18.543h-4.729l-0.481-2.174h-0.062c-0.358,0.246-0.792,0.515-1.306,0.798
		c-0.515,0.291-1.07,0.571-1.659,0.843c-0.59,0.269-1.212,0.504-1.859,0.687c-0.658,0.172-1.294,0.261-1.911,0.261
		c-0.711,0-1.367-0.111-1.976-0.339c-0.617-0.235-1.152-0.571-1.612-1.022c-0.461-0.455-0.83-1.025-1.097-1.712
		c-0.274-0.697-0.41-1.487-0.41-2.397V43.662H64.274z"/>
	<path fill="#FFFFFF" d="M87.247,45.25c0.738-0.536,1.511-1.003,2.3-1.409c0.79-0.384,1.729-0.578,2.812-0.578
		c0.962,0,1.888,0.164,2.782,0.5c0.892,0.328,1.689,0.854,2.378,1.577c0.688,0.731,1.244,1.66,1.654,2.823
		c0.416,1.152,0.619,2.563,0.619,4.226c0,1.604-0.224,3.036-0.673,4.289c-0.457,1.254-1.096,2.316-1.929,3.189
		c-0.834,0.873-1.847,1.536-3.04,2.007c-1.199,0.458-2.543,0.689-4.052,0.689c-0.5,0-1.019-0.037-1.539-0.108
		c-0.52-0.066-0.964-0.152-1.32-0.257c0,0.183,0.012,0.492,0.03,0.939c0.015,0.44,0.031,0.888,0.031,1.347v9.548l-5.271,0.884
		V44.195l4.666-0.806L87.247,45.25z M94.32,52.583c0-2.063-0.338-3.58-1.017-4.565c-0.681-0.984-1.592-1.473-2.735-1.473
		c-0.588,0-1.144,0.06-1.679,0.183c-0.531,0.123-1.063,0.287-1.585,0.515v12.162c0.399,0.098,0.795,0.172,1.189,0.213
		c0.396,0.041,0.819,0.06,1.254,0.06c0.669,0,1.296-0.06,1.88-0.183c0.585-0.108,1.016-0.324,1.298-0.597
		c0.324-0.324,0.638-1.022,0.941-2.115C94.171,55.679,94.32,54.287,94.32,52.583z"/>
	<path fill="#FFFFFF" d="M131.771,62.205l-2.141-21.162l-9.511,21.162h-1.63l-9.934-21.162l-1.806,21.162h-3.101l2.674-27.942h5.035
		l9.238,19.655l8.791-19.655h4.91l2.92,27.942H131.771z"/>
	<path fill="#FFFFFF" d="M144.868,71.209c-0.941,1.164-1.883,2.014-2.813,2.566c-0.931,0.552-1.882,0.831-2.844,0.831
		c-0.506,0-1.051-0.041-1.627-0.119c-0.578-0.078-1.05-0.179-1.387-0.302v-1.779h0.396c0.636,0,1.385-0.179,2.225-0.541
		c0.841-0.354,1.65-0.88,2.407-1.566c0.425-0.354,0.91-0.839,1.477-1.429c0.558-0.589,1.144-1.234,1.746-1.942
		c0.604-0.705,1.189-1.422,1.76-2.164c0.571-0.749,1.09-1.454,1.556-2.145c-0.724-2.186-1.436-4.214-2.145-6.086
		c-0.701-1.884-1.354-3.54-1.954-4.969c-0.597-1.439-1.14-2.618-1.609-3.528c-0.476-0.913-0.849-1.51-1.134-1.797
		c-0.252-0.262-0.53-0.426-0.81-0.493c-0.283-0.074-0.504-0.107-0.668-0.107h-0.146v-1.753c0.223-0.063,0.51-0.108,0.858-0.157
		c0.349-0.052,0.714-0.097,1.098-0.138c0.387-0.037,0.76-0.078,1.114-0.104c0.359-0.033,0.658-0.045,0.9-0.045
		c0.525,0,0.992,0.063,1.413,0.19c0.422,0.131,0.772,0.354,1.056,0.683c0.351,0.357,0.757,0.947,1.171,1.775
		c0.422,0.824,0.858,1.809,1.317,2.961c0.443,1.156,0.909,2.439,1.387,3.856c0.47,1.414,0.925,2.905,1.365,4.469h0.09
		c0.611-0.967,1.093-1.88,1.47-2.738c0.361-0.861,0.667-1.723,0.876-2.559c0.224-0.839,0.381-1.682,0.459-2.532
		c0.086-0.839,0.123-1.73,0.123-2.678c0-0.265-0.026-0.541-0.053-0.828c-0.029-0.287-0.063-0.566-0.101-0.843
		c-0.045-0.272-0.089-0.515-0.142-0.738c-0.052-0.224-0.101-0.388-0.13-0.485l4.099-0.724c0.097,0.284,0.19,0.698,0.269,1.25
		c0.082,0.552,0.119,1.081,0.119,1.581c0,1.328-0.209,2.667-0.634,4.014c-0.422,1.361-0.974,2.707-1.638,4.058
		c-0.679,1.343-1.413,2.678-2.23,3.998c-0.816,1.324-1.618,2.618-2.398,3.883c-0.835,1.302-1.536,2.391-2.092,3.267
		c-0.545,0.877-1.041,1.627-1.484,2.268c-0.447,0.646-0.869,1.238-1.275,1.794C145.891,69.938,145.413,70.545,144.868,71.209z"/>
	<path fill="#FFFFFF" d="M168.347,49.35l0.731-0.153c0.697-0.164,1.361-0.365,1.98-0.619c0.626-0.25,1.163-0.615,1.611-1.111
		c0.454-0.496,0.809-1.142,1.07-1.943c0.268-0.798,0.395-1.827,0.395-3.073c0-1.865-0.421-3.226-1.264-4.076
		c-0.851-0.854-1.955-1.279-3.319-1.279c-0.332,0-0.69,0.011-1.03,0.034c-0.357,0.019-0.727,0.06-1.104,0.112v24.959h-5.359V34.587
		c0.563-0.041,1.175-0.071,1.839-0.112c0.656-0.041,1.347-0.075,2.066-0.112c0.704-0.03,1.413-0.049,2.133-0.063
		c0.705-0.007,1.396-0.007,2.059-0.007c1.626,0,3.032,0.183,4.223,0.552c1.193,0.369,2.188,0.902,2.961,1.574
		c0.783,0.687,1.369,1.514,1.753,2.488c0.377,0.97,0.57,2.066,0.57,3.297c0,1.287-0.216,2.491-0.63,3.61
		c-0.425,1.13-1.07,2.107-1.943,2.954c-0.872,0.836-1.991,1.499-3.349,1.984c-1.347,0.488-2.958,0.724-4.823,0.724h-0.23
		L168.347,49.35z"/>
	<path fill="#FFFFFF" d="M194.693,47.839c-0.403-0.142-0.828-0.254-1.295-0.343c-0.462-0.09-0.902-0.131-1.323-0.131
		c-0.31,0-0.571,0.022-0.813,0.071c-0.242,0.06-0.466,0.134-0.675,0.261c-0.213,0.123-0.426,0.283-0.638,0.488
		c-0.213,0.19-0.448,0.437-0.705,0.716v13.304h-5.273V43.669h4.729l0.451,2.946h0.026c0.135-0.22,0.317-0.48,0.519-0.768
		c0.205-0.291,0.418-0.586,0.646-0.873c0.238-0.291,0.47-0.556,0.724-0.795c0.253-0.246,0.507-0.41,0.768-0.511
		c0.463-0.164,0.981-0.269,1.566-0.324c0.59-0.056,1.209-0.078,1.892-0.078L194.693,47.839z"/>
	<path fill="#FFFFFF" d="M206.646,62.563c-3.01,0-5.314-0.813-6.911-2.458c-1.593-1.634-2.395-4.024-2.395-7.176
		c0-1.492,0.198-2.834,0.59-4.024c0.388-1.186,0.977-2.208,1.76-3.039c0.78-0.832,1.753-1.474,2.928-1.925
		c1.16-0.451,2.499-0.679,4.024-0.679c3.07,0,5.386,0.835,6.956,2.491c1.563,1.671,2.346,4.039,2.346,7.112
		c0,1.511-0.193,2.854-0.581,4.043c-0.393,1.201-0.981,2.212-1.765,3.048c-0.783,0.827-1.761,1.469-2.917,1.924
		C209.515,62.34,208.168,62.563,206.646,62.563z M202.827,52.9c0,2.432,0.287,4.21,0.869,5.359c0.578,1.145,1.56,1.723,2.924,1.723
		c0.519,0,1-0.056,1.47-0.146c0.467-0.093,0.84-0.22,1.142-0.402c0.205-0.101,0.373-0.347,0.537-0.738
		c0.142-0.396,0.272-0.881,0.384-1.459c0.112-0.581,0.19-1.245,0.246-1.991c0.049-0.742,0.067-1.511,0.067-2.316
		c0-2.364-0.291-4.14-0.88-5.314c-0.594-1.171-1.56-1.761-2.872-1.761c-0.504,0-1.003,0.053-1.478,0.153
		c-0.488,0.101-0.909,0.265-1.268,0.48c-0.197,0.116-0.373,0.37-0.525,0.754c-0.161,0.388-0.27,0.869-0.362,1.451
		c-0.086,0.578-0.149,1.23-0.19,1.954C202.85,51.363,202.827,52.12,202.827,52.9z"/>
	<path fill="#FFFFFF" d="M220.614,43.662h5.273v17.846c0,1.63-0.123,3.11-0.357,4.442c-0.239,1.335-0.604,2.547-1.101,3.64
		c-0.5,1.093-1.123,2.097-1.884,3.01c-0.757,0.914-1.663,1.765-2.708,2.548l-1.503-1.417c0.485-0.578,0.869-1.205,1.164-1.865
		c0.287-0.656,0.515-1.391,0.69-2.182c0.171-0.791,0.287-1.671,0.347-2.637s0.089-2.029,0.089-3.189V43.662H220.614z
		 M223.143,33.147l3.35,3.461l-3.35,3.491l-3.308-3.491L223.143,33.147z"/>
	<path fill="#FFFFFF" d="M239.643,43.267c0.881,0,1.742,0.123,2.577,0.373c0.832,0.257,1.604,0.679,2.302,1.264
		c0.697,0.594,1.302,1.396,1.82,2.38c0.518,0.992,0.902,2.237,1.163,3.723v0.242c-0.164,0.22-0.373,0.421-0.646,0.597
		c-0.271,0.183-0.63,0.332-1.077,0.47c-0.433,0.127-0.974,0.258-1.615,0.361c-0.646,0.104-1.413,0.19-2.319,0.254l-5.841,0.451
		v0.779c0,1.451,0.388,2.645,1.148,3.585c0.761,0.951,1.902,1.417,3.424,1.417c0.627,0,1.275-0.074,1.97-0.205
		c0.679-0.123,1.323-0.283,1.939-0.466c0.604-0.184,1.178-0.358,1.678-0.553c0.519-0.189,0.898-0.354,1.168-0.499l0.447,1.357
		c-0.556,0.425-1.189,0.861-1.891,1.309c-0.713,0.455-1.463,0.861-2.257,1.22c-0.813,0.362-1.652,0.656-2.555,0.892
		c-0.888,0.231-1.813,0.336-2.749,0.336c-1.104,0-2.137-0.153-3.084-0.492c-0.959-0.329-1.783-0.858-2.477-1.586
		c-0.687-0.716-1.238-1.663-1.63-2.83c-0.407-1.164-0.612-2.57-0.612-4.241c0-1.868,0.231-3.446,0.701-4.74
		c0.455-1.294,1.101-2.339,1.921-3.129c0.82-0.791,1.79-1.373,2.905-1.73C237.163,43.449,238.356,43.267,239.643,43.267z
		 M237.145,46.396c-0.139,0.115-0.272,0.343-0.403,0.671c-0.131,0.34-0.242,0.731-0.339,1.183c-0.105,0.455-0.184,0.925-0.25,1.414
		c-0.061,0.488-0.09,0.973-0.09,1.432l5.807-0.276c-0.06-0.54-0.142-1.104-0.265-1.686c-0.13-0.574-0.302-1.111-0.533-1.596
		c-0.235-0.485-0.522-0.885-0.861-1.209c-0.332-0.32-0.754-0.478-1.228-0.478c-0.343,0-0.664,0.041-0.966,0.12
		C237.715,46.06,237.428,46.201,237.145,46.396z"/>
	<path fill="#FFFFFF" d="M265.321,47.63c-0.656-0.339-1.446-0.671-2.356-0.996c-0.922-0.316-1.902-0.474-2.969-0.474
		c-0.44,0-0.888,0.041-1.328,0.135c-0.44,0.09-0.824,0.254-1.148,0.492c-0.354,0.265-0.646,0.892-0.869,1.865
		c-0.224,0.97-0.328,2.495-0.328,4.58c0,1.152,0.086,2.118,0.238,2.912c0.164,0.799,0.403,1.443,0.728,1.933
		c0.324,0.499,0.724,0.854,1.204,1.063c0.475,0.213,1.029,0.317,1.652,0.317c0.978,0,2.007-0.104,3.073-0.317
		c1.063-0.209,2.021-0.492,2.891-0.857l0.478,1.357c-1.015,0.835-2.186,1.529-3.498,2.077c-1.316,0.56-2.764,0.847-4.323,0.847
		c-1.104,0-2.145-0.164-3.121-0.503c-0.978-0.329-1.813-0.858-2.511-1.586c-0.697-0.716-1.253-1.663-1.674-2.83
		c-0.411-1.164-0.612-2.57-0.612-4.241c0-1.589,0.217-3.002,0.649-4.259s1.055-2.316,1.876-3.189c0.82-0.88,1.842-1.54,3.077-2.006
		c1.223-0.459,2.625-0.69,4.207-0.69c0.962,0,1.936,0.067,2.905,0.209c0.974,0.131,1.86,0.302,2.67,0.478L265.321,47.63z"/>
	<path fill="#FFFFFF" d="M270.502,46.221l-1.98-0.664v-1.119l5.71-4.032h1.451l0.06,3.256h5.628l-0.238,2.043
		c-0.422,0.082-0.937,0.149-1.548,0.209c-0.615,0.063-1.201,0.116-1.768,0.157c-0.657,0.06-1.347,0.119-2.048,0.183v10.413
		c0,0.664,0.123,1.22,0.365,1.671c0.235,0.451,0.742,0.679,1.499,0.679c0.198,0,0.475-0.015,0.81-0.033
		c0.34-0.026,0.701-0.053,1.074-0.094c0.362-0.041,0.731-0.089,1.082-0.134c0.343-0.049,0.648-0.098,0.892-0.131v1.529
		c-0.448,0.295-0.963,0.57-1.537,0.861c-0.586,0.287-1.201,0.552-1.857,0.783c-0.648,0.231-1.306,0.418-1.969,0.56
		c-0.664,0.131-1.302,0.205-1.91,0.205c-0.459,0-0.914-0.049-1.354-0.134c-0.451-0.09-0.851-0.266-1.197-0.534
		c-0.354-0.253-0.638-0.618-0.84-1.096c-0.212-0.471-0.332-1.086-0.332-1.854V46.221H270.502z"/>
</g>
</svg>
