<?xml version="1.0" encoding="utf-8"?>
<!-- Generator: Adobe Illustrator 16.0.0, SVG Export Plug-In . SVG Version: 6.00 Build 0)  -->
<!DOCTYPE svg PUBLIC "-//W3C//DTD SVG 1.1//EN" "http://www.w3.org/Graphics/SVG/1.1/DTD/svg11.dtd">
<svg version="1.1" id="Camada_1" xmlns="http://www.w3.org/2000/svg" xmlns:xlink="http://www.w3.org/1999/xlink" x="0px" y="0px"
	 width="297.152px" height="69.094px" viewBox="5.325 4.658 297.152 69.094" enable-background="new 5.325 4.658 297.152 69.094"
	 xml:space="preserve">
<path fill="#BF0411" d="M23.279,49.835c1.042-2.446,3.257-3.923,5.92-3.923h4.231v-4.55c-0.184,0.01-0.365,0.024-0.552,0.024
	c-2.535,0-4.699-0.896-6.494-2.689c-1.792-1.79-2.688-3.956-2.688-6.491c0-2.532,0.894-4.697,2.688-6.491
	c1.794-1.792,3.959-2.689,6.494-2.689c2.532,0,4.697,0.896,6.491,2.689c0.937,0.938,1.623,1.979,2.071,3.117h6.977
	c1.738,0,3.311,0.657,4.552,1.898c1.22,1.22,1.896,2.834,1.896,4.548v2.961l4.554-0.688c0.288-0.049,0.525-0.203,0.717-0.466
	c0.192-0.262,0.288-0.537,0.288-0.825v-7.963c0-0.31-0.097-0.593-0.288-0.844c-0.19-0.252-0.442-0.401-0.752-0.449L52.819,26
	c-0.36-1.147-0.85-2.319-1.472-3.517c0.43-0.598,1.077-1.439,1.937-2.528c0.86-1.087,1.47-1.882,1.829-2.384
	c0.19-0.264,0.286-0.54,0.286-0.826c0-0.333-0.084-0.598-0.251-0.788c-0.862-1.22-2.833-3.252-5.919-6.097
	C48.94,9.62,48.641,9.5,48.331,9.5c-0.357,0-0.645,0.108-0.86,0.323l-5.094,3.837c-0.981-0.503-2.056-0.945-3.228-1.326
	l-1.005-6.599c-0.024-0.31-0.161-0.568-0.412-0.772c-0.251-0.203-0.547-0.305-0.88-0.305h-7.962c-0.694,0-1.125,0.333-1.292,1.003
	c-0.312,1.197-0.659,3.421-1.04,6.673c-1.123,0.359-2.212,0.813-3.263,1.362L18.346,9.86c-0.312-0.24-0.624-0.36-0.934-0.36
	c-0.523,0-1.654,0.856-3.388,2.565c-1.733,1.712-2.912,2.996-3.534,3.856c-0.215,0.312-0.322,0.587-0.322,0.825
	c0,0.287,0.122,0.574,0.359,0.86c1.601,1.937,2.882,3.588,3.837,4.951c-0.598,1.101-1.066,2.202-1.399,3.3l-6.673,1.004
	c-0.262,0.047-0.49,0.203-0.68,0.464c-0.19,0.264-0.286,0.539-0.286,0.825v7.962c0,0.313,0.095,0.594,0.286,0.843
	c0.192,0.256,0.442,0.403,0.754,0.449l6.564,0.967c0.337,1.173,0.825,2.359,1.472,3.553c-0.432,0.599-1.077,1.443-1.937,2.53
	c-0.86,1.088-1.469,1.888-1.829,2.389c-0.19,0.263-0.286,0.538-0.286,0.825c0,0.312,0.085,0.589,0.251,0.823
	c0.934,1.291,2.906,3.299,5.92,6.023c0.263,0.268,0.563,0.4,0.897,0.4c0.356,0,0.658-0.105,0.896-0.324l4.562-3.46
	C22.969,50.698,23.092,50.266,23.279,49.835z"/>
<g>
	<path d="M31.248,64.018c0.412-0.409,0.618-0.897,0.618-1.462c0-0.563-0.206-1.048-0.618-1.46c-0.412-0.413-0.899-0.618-1.46-0.618
		c-0.562,0-1.051,0.205-1.461,0.618c-0.412,0.408-0.617,0.896-0.617,1.46c0,0.564,0.205,1.049,0.617,1.462
		c0.41,0.412,0.899,0.615,1.461,0.615C30.349,64.633,30.836,64.43,31.248,64.018z"/>
</g>
<g>
	<path d="M22.317,64.018c0.412-0.409,0.618-0.897,0.618-1.462c0-0.563-0.206-1.048-0.618-1.46c-0.41-0.413-0.897-0.618-1.46-0.618
		c-0.564,0-1.052,0.205-1.463,0.618c-0.411,0.408-0.617,0.896-0.617,1.46c0,0.564,0.206,1.049,0.617,1.462
		c0.412,0.414,0.899,0.615,1.463,0.615C21.42,64.633,21.908,64.43,22.317,64.018z"/>
</g>
<g>
	<path fill="#9A999E" d="M13.391,64.018c0.41-0.409,0.618-0.897,0.618-1.462c0-0.563-0.208-1.048-0.618-1.46
		c-0.412-0.413-0.899-0.618-1.46-0.618c-0.564,0-1.05,0.205-1.46,0.618c-0.413,0.408-0.618,0.896-0.618,1.46
		c0,0.564,0.205,1.049,0.618,1.462c0.41,0.412,0.896,0.615,1.46,0.615C12.492,64.633,12.979,64.43,13.391,64.018z"/>
</g>
<g>
	<path fill="#4F8E3A" d="M27.231,51.56c0.376-0.889,1.033-1.333,1.97-1.333h8.541V35.282c0-0.58,0.211-1.079,0.632-1.501
		c0.422-0.422,0.923-0.635,1.501-0.635h8.541c0.579,0,1.079,0.213,1.502,0.635c0.422,0.422,0.633,0.923,0.633,1.501v14.944h8.541
		c0.936,0,1.59,0.444,1.969,1.333c0.38,0.865,0.223,1.638-0.466,2.304L45.647,68.812c-0.401,0.417-0.901,0.635-1.501,0.635
		c-0.601,0-1.101-0.218-1.5-0.635L27.699,53.863C27.008,53.197,26.853,52.425,27.231,51.56z"/>
</g>
<g enable-background="new    ">
	<path d="M84.605,44.526c0,0.834-0.201,1.674-0.603,2.518c-0.4,0.847-0.978,1.604-1.729,2.281c-0.751,0.679-1.659,1.227-2.719,1.656
		c-1.062,0.426-2.253,0.64-3.572,0.64c-0.703,0-1.354-0.045-1.954-0.125c-0.603-0.085-1.166-0.199-1.693-0.339
		c-0.526-0.14-1.034-0.317-1.516-0.526c-0.483-0.21-0.969-0.438-1.455-0.688l1.104-3.436c0.316,0.22,0.739,0.453,1.265,0.702
		c0.526,0.25,1.098,0.487,1.718,0.7c0.618,0.219,1.241,0.4,1.867,0.54c0.627,0.14,1.199,0.214,1.717,0.214
		c0.585,0,1.066-0.038,1.442-0.112c0.376-0.076,0.716-0.18,1.017-0.317c0.334-0.134,0.6-0.466,0.802-0.999
		c0.199-0.537,0.301-1.229,0.301-2.082c0-0.787-0.26-1.411-0.775-1.879c-0.518-0.47-1.166-0.873-1.943-1.219
		c-0.777-0.345-1.616-0.685-2.52-1.028c-0.904-0.342-1.742-0.784-2.521-1.328c-0.777-0.542-1.425-1.24-1.941-2.093
		c-0.518-0.854-0.778-1.972-0.778-3.36c0-0.67,0.176-1.376,0.527-2.119s0.86-1.429,1.53-2.056c0.668-0.626,1.495-1.141,2.483-1.542
		c0.986-0.401,2.105-0.602,3.358-0.602c1.003,0,1.97,0.05,2.895,0.149c0.928,0.103,1.827,0.234,2.695,0.403l-0.702,3.434
		c-0.401-0.149-0.856-0.292-1.365-0.424c-0.509-0.133-1.029-0.252-1.553-0.352c-0.527-0.102-1.04-0.18-1.542-0.238
		c-0.502-0.056-0.945-0.087-1.329-0.087c-0.436,0-0.836,0.022-1.203,0.061c-0.368,0.043-0.701,0.156-1.003,0.339
		c-0.283,0.167-0.49,0.457-0.614,0.864c-0.126,0.409-0.188,0.899-0.188,1.467c0,0.586,0.15,1.069,0.451,1.456
		c0.301,0.383,0.699,0.722,1.192,1.014c0.494,0.295,1.053,0.562,1.68,0.804c0.626,0.24,1.27,0.5,1.931,0.774
		c0.66,0.275,1.304,0.593,1.931,0.952c0.625,0.359,1.185,0.802,1.679,1.329c0.492,0.524,0.891,1.165,1.188,1.916
		C84.456,42.546,84.605,43.456,84.605,44.526z"/>
	<path d="M94.631,35.522c0.734,0,1.449,0.107,2.144,0.314c0.692,0.21,1.332,0.562,1.917,1.054c0.585,0.493,1.09,1.153,1.517,1.98
		s0.747,1.859,0.964,3.095v0.203c-0.134,0.183-0.314,0.35-0.539,0.5c-0.226,0.147-0.521,0.281-0.892,0.389
		c-0.365,0.11-0.818,0.212-1.354,0.301c-0.534,0.093-1.179,0.165-1.93,0.216l-4.864,0.375v0.651c0,1.204,0.316,2.198,0.951,2.985
		c0.635,0.785,1.588,1.177,2.857,1.177c0.519,0,1.062-0.051,1.629-0.161c0.568-0.11,1.107-0.237,1.616-0.39s0.98-0.305,1.404-0.465
		c0.425-0.157,0.748-0.297,0.965-0.411l0.374,1.128c-0.467,0.352-0.994,0.715-1.579,1.092c-0.585,0.375-1.211,0.713-1.881,1.014
		c-0.67,0.305-1.373,0.55-2.119,0.74c-0.745,0.194-1.508,0.29-2.295,0.29c-0.918,0-1.773-0.138-2.568-0.413
		c-0.795-0.276-1.479-0.715-2.057-1.315c-0.576-0.601-1.031-1.388-1.364-2.357c-0.335-0.967-0.501-2.146-0.501-3.533
		c0-1.555,0.19-2.869,0.576-3.948c0.384-1.079,0.919-1.946,1.605-2.606c0.685-0.661,1.49-1.141,2.419-1.44
		C92.564,35.675,93.563,35.522,94.631,35.522z M92.551,38.133c-0.116,0.097-0.229,0.287-0.337,0.563
		c-0.109,0.277-0.204,0.601-0.289,0.978s-0.149,0.768-0.201,1.176c-0.05,0.411-0.076,0.809-0.076,1.193l4.838-0.224
		c-0.05-0.453-0.126-0.921-0.226-1.403c-0.099-0.484-0.246-0.929-0.437-1.328c-0.193-0.404-0.432-0.736-0.715-1.003
		c-0.285-0.267-0.627-0.404-1.027-0.404c-0.283,0-0.553,0.036-0.802,0.104C93.029,37.849,92.786,37.965,92.551,38.133z"/>
	<path d="M105.187,37.98l-1.655-0.551V36.5l4.756-3.357h1.212l0.05,2.706h4.688l-0.201,1.704c-0.352,0.067-0.782,0.127-1.292,0.176
		c-0.509,0.049-0.998,0.093-1.466,0.125c-0.551,0.051-1.12,0.102-1.706,0.149v8.675c0,0.553,0.1,1.019,0.302,1.391
		c0.201,0.379,0.62,0.567,1.255,0.567c0.166,0,0.392-0.009,0.678-0.025c0.286-0.018,0.581-0.043,0.891-0.074
		c0.31-0.032,0.611-0.072,0.903-0.116c0.293-0.041,0.539-0.076,0.739-0.11v1.277c-0.366,0.233-0.794,0.475-1.279,0.716
		c-0.484,0.241-0.998,0.457-1.54,0.651c-0.544,0.192-1.092,0.347-1.645,0.464c-0.552,0.116-1.081,0.175-1.583,0.175
		c-0.389,0-0.766-0.04-1.136-0.114c-0.368-0.076-0.702-0.222-0.994-0.436c-0.295-0.22-0.531-0.522-0.707-0.918
		c-0.178-0.392-0.264-0.905-0.264-1.54V37.98H105.187z"/>
	<path d="M121.608,35.851v10.354c0,0.918,0.147,1.6,0.444,2.042c0.294,0.444,0.797,0.664,1.506,0.664
		c0.254,0,0.531-0.038,0.834-0.112c0.303-0.073,0.615-0.175,0.936-0.302c0.32-0.125,0.629-0.267,0.924-0.428
		c0.294-0.154,0.569-0.326,0.82-0.51V35.851h4.388v15.442h-3.935l-0.401-1.803h-0.049c-0.302,0.198-0.666,0.419-1.09,0.664
		c-0.428,0.241-0.887,0.477-1.381,0.702c-0.494,0.225-1.012,0.411-1.553,0.563c-0.544,0.147-1.075,0.224-1.594,0.224
		c-0.584,0-1.131-0.097-1.642-0.287c-0.509-0.192-0.955-0.477-1.342-0.855c-0.383-0.376-0.688-0.853-0.914-1.428
		c-0.225-0.577-0.337-1.24-0.337-1.995V35.849h4.385V35.851z"/>
	<path d="M140.735,37.178c0.617-0.45,1.256-0.84,1.917-1.165s1.443-0.49,2.345-0.49c0.802,0,1.575,0.139,2.317,0.414
		c0.744,0.275,1.404,0.715,1.98,1.315c0.576,0.602,1.036,1.384,1.379,2.345c0.342,0.961,0.513,2.133,0.513,3.521
		c0,1.337-0.188,2.528-0.563,3.571c-0.378,1.046-0.911,1.932-1.606,2.66c-0.692,0.726-1.536,1.282-2.53,1.669
		c-0.994,0.381-2.119,0.575-3.372,0.575c-0.417,0-0.844-0.029-1.277-0.086c-0.436-0.06-0.802-0.134-1.103-0.214
		c0,0.147,0.007,0.406,0.023,0.774s0.026,0.744,0.026,1.13v7.946l-4.388,0.729V36.304l3.886-0.679L140.735,37.178z M146.625,43.282
		c0-1.718-0.281-2.983-0.843-3.8c-0.563-0.816-1.322-1.226-2.279-1.226c-0.487,0-0.953,0.049-1.397,0.15
		c-0.446,0.1-0.887,0.241-1.319,0.424v10.13c0.334,0.085,0.664,0.14,0.992,0.174c0.327,0.036,0.677,0.051,1.045,0.051
		c0.554,0,1.074-0.051,1.561-0.148c0.488-0.102,0.85-0.267,1.084-0.501c0.269-0.267,0.529-0.857,0.78-1.763
		C146.5,45.863,146.625,44.704,146.625,43.282z"/>
	<path d="M177.811,51.293l-1.777-17.623l-7.921,17.623h-1.354l-8.272-17.623l-1.502,17.623h-2.587l2.231-23.263h4.185l7.697,16.371
		l7.321-16.371h4.087l2.434,23.263H177.811z"/>
	<path d="M188.716,58.791c-0.787,0.967-1.565,1.68-2.345,2.142c-0.776,0.459-1.565,0.689-2.369,0.689
		c-0.417,0-0.868-0.034-1.354-0.102c-0.484-0.067-0.867-0.15-1.15-0.25v-1.48h0.325c0.533,0,1.151-0.148,1.852-0.453
		c0.7-0.301,1.371-0.732,2.006-1.303c0.352-0.301,0.764-0.698,1.229-1.191c0.465-0.493,0.952-1.03,1.453-1.617
		c0.502-0.586,0.99-1.187,1.469-1.805c0.476-0.617,0.905-1.214,1.293-1.779c-0.604-1.821-1.2-3.514-1.782-5.075
		c-0.584-1.566-1.13-2.941-1.629-4.137c-0.501-1.195-0.95-2.173-1.342-2.935c-0.394-0.758-0.706-1.255-0.939-1.489
		c-0.22-0.216-0.444-0.352-0.679-0.411c-0.234-0.059-0.417-0.089-0.55-0.089h-0.125v-1.454c0.187-0.05,0.423-0.096,0.715-0.137
		s0.597-0.078,0.914-0.112c0.319-0.035,0.626-0.063,0.927-0.089c0.305-0.026,0.557-0.039,0.756-0.039
		c0.436,0,0.827,0.054,1.178,0.162c0.352,0.111,0.644,0.299,0.879,0.565c0.3,0.302,0.626,0.793,0.975,1.48
		c0.352,0.686,0.715,1.507,1.092,2.469c0.377,0.961,0.76,2.033,1.151,3.21c0.394,1.177,0.774,2.416,1.143,3.722h0.074
		c0.501-0.802,0.905-1.563,1.216-2.283c0.312-0.715,0.555-1.426,0.741-2.128c0.182-0.703,0.309-1.405,0.374-2.105
		c0.065-0.702,0.102-1.445,0.102-2.232c0-0.216-0.013-0.446-0.04-0.689c-0.025-0.239-0.053-0.477-0.085-0.699
		c-0.035-0.226-0.071-0.431-0.114-0.615c-0.042-0.184-0.08-0.315-0.114-0.4l3.411-0.602c0.08,0.233,0.156,0.581,0.225,1.038
		c0.069,0.458,0.102,0.899,0.102,1.316c0,1.103-0.178,2.218-0.525,3.347c-0.351,1.13-0.808,2.252-1.366,3.371
		c-0.563,1.123-1.181,2.232-1.855,3.334c-0.68,1.107-1.342,2.182-1.993,3.235c-0.703,1.086-1.284,1.993-1.741,2.719
		c-0.462,0.728-0.874,1.358-1.242,1.894c-0.37,0.535-0.726,1.033-1.064,1.49C189.565,57.729,189.169,58.237,188.716,58.791z"/>
	<path d="M208.271,40.589l0.601-0.129c0.588-0.134,1.138-0.305,1.654-0.51c0.521-0.21,0.965-0.519,1.342-0.929
		c0.376-0.409,0.673-0.95,0.891-1.617c0.218-0.668,0.323-1.522,0.323-2.56c0-1.554-0.349-2.685-1.049-3.396
		c-0.703-0.711-1.623-1.064-2.759-1.064c-0.284,0-0.571,0.01-0.861,0.025c-0.294,0.017-0.599,0.049-0.916,0.102v20.781h-4.465
		V28.307c0.47-0.035,0.978-0.065,1.527-0.101c0.555-0.035,1.128-0.063,1.719-0.089c0.592-0.025,1.188-0.041,1.781-0.05
		c0.593-0.006,1.164-0.011,1.716-0.011c1.354,0,2.528,0.153,3.522,0.464c0.995,0.31,1.817,0.748,2.472,1.314
		c0.651,0.568,1.134,1.257,1.451,2.067c0.319,0.811,0.479,1.728,0.479,2.747c0,1.068-0.176,2.072-0.527,3.009
		c-0.351,0.938-0.889,1.757-1.616,2.459c-0.728,0.698-1.654,1.253-2.782,1.654c-1.128,0.402-2.469,0.601-4.02,0.601h-0.203
		L208.271,40.589z"/>
	<path d="M230.208,39.334c-0.335-0.118-0.694-0.211-1.079-0.287c-0.385-0.074-0.754-0.114-1.104-0.114
		c-0.25,0-0.474,0.021-0.677,0.061c-0.199,0.045-0.39,0.117-0.563,0.214c-0.173,0.102-0.351,0.235-0.524,0.404
		c-0.178,0.167-0.372,0.366-0.59,0.599v11.083h-4.387V35.849h3.936l0.377,2.457h0.025c0.116-0.182,0.258-0.397,0.423-0.639
		c0.169-0.241,0.347-0.486,0.542-0.727c0.19-0.243,0.394-0.465,0.601-0.666s0.419-0.343,0.639-0.426
		c0.386-0.135,0.819-0.222,1.304-0.263c0.486-0.041,1.012-0.063,1.58-0.063L230.208,39.334z"/>
	<path d="M240.156,51.593c-2.505,0-4.422-0.681-5.751-2.041c-1.328-1.363-1.993-3.355-1.993-5.979c0-1.238,0.161-2.353,0.489-3.348
		c0.328-0.994,0.814-1.838,1.466-2.532c0.652-0.691,1.465-1.228,2.434-1.604c0.969-0.377,2.09-0.566,3.359-0.566
		c2.559,0,4.486,0.694,5.791,2.083c1.304,1.388,1.953,3.358,1.953,5.914c0,1.252-0.16,2.378-0.486,3.372
		c-0.326,0.995-0.816,1.841-1.469,2.531c-0.651,0.693-1.464,1.23-2.431,1.607C242.546,51.402,241.429,51.593,240.156,51.593z
		 M236.974,43.545c0,2.024,0.243,3.512,0.728,4.464c0.486,0.952,1.297,1.429,2.433,1.429c0.432,0,0.843-0.04,1.228-0.112
		c0.385-0.076,0.702-0.19,0.952-0.339c0.165-0.082,0.313-0.287,0.44-0.613c0.122-0.326,0.23-0.732,0.323-1.219
		c0.091-0.484,0.154-1.037,0.199-1.654c0.044-0.618,0.063-1.262,0.063-1.93c0-1.972-0.245-3.449-0.743-4.427
		c-0.49-0.978-1.29-1.468-2.391-1.468c-0.414,0-0.827,0.044-1.227,0.129c-0.404,0.082-0.754,0.218-1.055,0.399
		c-0.164,0.102-0.313,0.312-0.436,0.627c-0.127,0.317-0.229,0.719-0.305,1.206c-0.074,0.484-0.127,1.028-0.16,1.629
		C236.991,42.271,236.974,42.897,236.974,43.545z"/>
	<path d="M251.792,35.851h4.385v14.864c0,1.354-0.1,2.588-0.301,3.698c-0.199,1.111-0.504,2.123-0.914,3.032
		c-0.41,0.91-0.931,1.748-1.565,2.51c-0.64,0.76-1.391,1.464-2.26,2.118l-1.253-1.179c0.402-0.487,0.724-1.003,0.963-1.558
		c0.243-0.55,0.436-1.155,0.577-1.815c0.145-0.662,0.239-1.392,0.292-2.194c0.047-0.804,0.072-1.686,0.072-2.659V35.851H251.792z
		 M253.896,27.102l2.784,2.884l-2.784,2.907l-2.755-2.907L253.896,27.102z"/>
	<path d="M267.634,35.522c0.733,0,1.449,0.107,2.143,0.314c0.694,0.21,1.333,0.562,1.917,1.054c0.589,0.493,1.092,1.153,1.52,1.98
		c0.423,0.827,0.747,1.859,0.965,3.095v0.203c-0.138,0.183-0.315,0.35-0.542,0.5c-0.224,0.147-0.521,0.281-0.889,0.389
		c-0.368,0.11-0.82,0.212-1.354,0.301c-0.533,0.093-1.177,0.165-1.93,0.216l-4.862,0.375v0.651c0,1.204,0.315,2.198,0.95,2.985
		c0.635,0.785,1.584,1.177,2.854,1.177c0.521,0,1.063-0.051,1.63-0.161c0.571-0.11,1.11-0.237,1.616-0.39
		c0.512-0.147,0.981-0.305,1.405-0.465c0.427-0.157,0.749-0.297,0.964-0.411l0.377,1.128c-0.47,0.352-0.994,0.715-1.578,1.092
		c-0.588,0.375-1.215,0.713-1.883,1.014c-0.669,0.305-1.371,0.55-2.118,0.74c-0.745,0.194-1.509,0.29-2.296,0.29
		c-0.918,0-1.775-0.138-2.568-0.413c-0.796-0.276-1.481-0.715-2.057-1.315c-0.578-0.601-1.032-1.388-1.367-2.357
		c-0.334-0.967-0.499-2.146-0.499-3.533c0-1.555,0.192-2.869,0.577-3.948c0.384-1.079,0.921-1.946,1.604-2.606
		c0.684-0.661,1.491-1.141,2.418-1.44C265.567,35.675,266.566,35.522,267.634,35.522z M265.554,38.133
		c-0.119,0.097-0.229,0.287-0.339,0.563c-0.11,0.277-0.205,0.601-0.288,0.978c-0.084,0.377-0.152,0.768-0.202,1.176
		c-0.049,0.411-0.074,0.809-0.074,1.193l4.839-0.224c-0.051-0.453-0.129-0.921-0.227-1.403c-0.098-0.484-0.248-0.929-0.438-1.328
		c-0.192-0.404-0.432-0.736-0.715-1.003s-0.626-0.404-1.028-0.404c-0.283,0-0.55,0.036-0.8,0.104
		C266.03,37.849,265.787,37.965,265.554,38.133z"/>
	<path d="M289.018,39.158c-0.554-0.283-1.21-0.559-1.968-0.827c-0.762-0.267-1.582-0.401-2.471-0.401
		c-0.368,0-0.736,0.04-1.104,0.114c-0.364,0.076-0.684,0.216-0.95,0.414c-0.303,0.221-0.544,0.736-0.726,1.549
		c-0.187,0.816-0.277,2.086-0.277,3.817c0,0.954,0.065,1.765,0.201,2.429s0.334,1.202,0.601,1.612s0.602,0.704,1.003,0.88
		c0.402,0.176,0.859,0.265,1.38,0.265c0.816,0,1.672-0.089,2.556-0.265c0.887-0.176,1.688-0.41,2.408-0.713l0.401,1.128
		c-0.854,0.694-1.828,1.275-2.922,1.739c-1.094,0.463-2.295,0.693-3.599,0.693c-0.918,0-1.781-0.137-2.594-0.412
		c-0.809-0.277-1.505-0.715-2.091-1.314c-0.588-0.603-1.05-1.39-1.393-2.356c-0.342-0.969-0.516-2.149-0.516-3.538
		c0-1.32,0.182-2.5,0.541-3.546c0.358-1.045,0.881-1.934,1.566-2.657c0.686-0.729,1.536-1.283,2.558-1.67
		c1.02-0.385,2.19-0.578,3.511-0.578c0.799,0,1.607,0.06,2.416,0.176c0.813,0.115,1.553,0.247,2.219,0.396L289.018,39.158z"/>
	<path d="M293.331,37.98l-1.654-0.551V36.5l4.754-3.357h1.212l0.047,2.706h4.688l-0.203,1.704c-0.351,0.067-0.78,0.127-1.29,0.176
		c-0.508,0.049-0.999,0.093-1.469,0.125c-0.55,0.051-1.117,0.102-1.703,0.149v8.675c0,0.553,0.1,1.019,0.303,1.391
		c0.201,0.379,0.617,0.567,1.252,0.567c0.165,0,0.394-0.009,0.68-0.025c0.283-0.018,0.582-0.043,0.889-0.074
		c0.307-0.032,0.607-0.072,0.901-0.116c0.294-0.041,0.541-0.076,0.74-0.11v1.277c-0.368,0.233-0.794,0.475-1.278,0.716
		s-0.998,0.457-1.54,0.651c-0.548,0.192-1.094,0.347-1.648,0.464c-0.55,0.116-1.079,0.175-1.58,0.175
		c-0.392,0-0.769-0.04-1.136-0.114c-0.369-0.076-0.699-0.222-0.995-0.436c-0.294-0.22-0.528-0.522-0.706-0.918
		c-0.178-0.392-0.263-0.905-0.263-1.54V37.98L293.331,37.98z"/>
</g>
</svg>
