<?xml version="1.0" encoding="utf-8"?>
<!-- Generator: Adobe Illustrator 16.0.0, SVG Export Plug-In . SVG Version: 6.00 Build 0)  -->
<!DOCTYPE svg PUBLIC "-//W3C//DTD SVG 1.1//EN" "http://www.w3.org/Graphics/SVG/1.1/DTD/svg11.dtd">
<svg version="1.1" id="Camada_1" xmlns="http://www.w3.org/2000/svg" xmlns:xlink="http://www.w3.org/1999/xlink" x="0px" y="0px"
	 width="76.711px" height="81.414px" viewBox="0 0 76.711 81.414" enable-background="new 0 0 76.711 81.414" xml:space="preserve">
<g>
	<g>
		<path fill="#BF0411" d="M59.094,26.675v7.491c0,0.271-0.09,0.528-0.27,0.776c-0.182,0.248-0.405,0.394-0.676,0.438l-6.242,0.944
			c-0.428,1.215-0.866,2.239-1.316,3.071c0.787,1.125,1.991,2.677,3.611,4.657c0.225,0.27,0.338,0.551,0.338,0.844
			c0,0.292-0.102,0.551-0.305,0.775c-0.607,0.832-1.721,2.047-3.34,3.645c-1.621,1.598-2.679,2.396-3.172,2.396
			c-0.271,0-0.563-0.102-0.879-0.305l-4.656-3.645c-0.99,0.518-2.014,0.945-3.07,1.283c-0.359,3.059-0.686,5.149-0.979,6.274
			c-0.157,0.63-0.563,0.945-1.215,0.945h-7.49c-0.316,0-0.592-0.097-0.827-0.287c-0.236-0.19-0.366-0.435-0.388-0.726l-0.945-6.209
			c-1.103-0.359-2.115-0.776-3.037-1.248l-4.758,3.609c-0.225,0.203-0.506,0.305-0.844,0.305c-0.314,0-0.596-0.123-0.844-0.371
			c-2.834-2.564-4.689-4.455-5.567-5.67c-0.157-0.225-0.236-0.482-0.236-0.774c0-0.271,0.09-0.528,0.271-0.776
			c0.337-0.473,0.91-1.221,1.721-2.244c0.81-1.023,1.417-1.816,1.822-2.379c-0.607-1.124-1.069-2.237-1.384-3.34l-6.175-0.911
			c-0.293-0.045-0.529-0.186-0.709-0.422c-0.18-0.236-0.27-0.501-0.27-0.793V26.54c0-0.27,0.09-0.528,0.27-0.775
			c0.18-0.248,0.393-0.395,0.641-0.439l6.277-0.945c0.314-1.033,0.753-2.068,1.315-3.104c-0.899-1.283-2.104-2.835-3.61-4.657
			c-0.225-0.27-0.338-0.54-0.338-0.81c0-0.225,0.102-0.483,0.304-0.776c0.585-0.81,1.692-2.019,3.324-3.628
			c1.63-1.607,2.693-2.412,3.188-2.412c0.292,0,0.585,0.113,0.877,0.338l4.657,3.61c0.989-0.518,2.013-0.944,3.071-1.282
			c0.359-3.059,0.686-5.151,0.979-6.276c0.156-0.63,0.562-0.944,1.215-0.944h7.49c0.314,0,0.591,0.096,0.827,0.286
			c0.235,0.191,0.365,0.434,0.388,0.726l0.945,6.209c1.103,0.359,2.112,0.775,3.037,1.248l4.791-3.61
			c0.202-0.202,0.473-0.304,0.812-0.304c0.291,0,0.572,0.113,0.844,0.338c2.9,2.677,4.758,4.589,5.565,5.736
			c0.158,0.18,0.236,0.428,0.236,0.742c0,0.27-0.091,0.529-0.271,0.775c-0.338,0.473-0.91,1.221-1.721,2.244
			c-0.811,1.024-1.418,1.817-1.822,2.379c0.584,1.125,1.047,2.228,1.383,3.308l6.176,0.944c0.293,0.045,0.529,0.186,0.71,0.422
			C59.004,26.118,59.094,26.383,59.094,26.675z M39.287,36.461c1.688-1.688,2.529-3.724,2.529-6.108c0-2.384-0.844-4.42-2.529-6.107
			c-1.686-1.687-3.724-2.53-6.107-2.53c-2.385,0-4.421,0.843-6.108,2.53c-1.687,1.688-2.53,3.724-2.53,6.107
			c0,2.385,0.844,4.421,2.53,6.108c1.688,1.687,3.724,2.53,6.108,2.53C35.563,38.991,37.6,38.147,39.287,36.461z"/>
	</g>
</g>
<g>
	<path fill="#F7F7F8" d="M43.779,67.438c-1.131,0-2.135-0.429-2.901-1.237L26.854,52.177c-1.246-1.204-1.572-2.831-0.871-4.438
		c0.67-1.576,2.035-2.49,3.736-2.49h5.98V33.241c0-1.09,0.414-2.081,1.197-2.865c0.784-0.783,1.775-1.197,2.866-1.197h8.034
		c1.093,0,2.083,0.414,2.867,1.199c0.782,0.781,1.196,1.772,1.196,2.863V45.25h5.98c1.701,0,3.066,0.914,3.743,2.506
		c0.692,1.592,0.367,3.219-0.901,4.445L46.645,66.24C45.917,67.009,44.913,67.438,43.779,67.438z"/>
	<path fill="#FFFFFF" d="M43.779,69.438c-1.669,0-3.215-0.661-4.353-1.861L25.44,53.591c-1.837-1.774-2.329-4.271-1.29-6.651
		c0.979-2.305,3.064-3.69,5.569-3.69h3.98V33.241c0-1.632,0.616-3.111,1.782-4.279c1.169-1.167,2.648-1.783,4.281-1.783h8.034
		c1.635,0,3.115,0.617,4.282,1.785c1.148,1.147,1.781,2.666,1.781,4.277V43.25h3.98c2.505,0,4.593,1.392,5.584,3.724
		c1.024,2.356,0.521,4.854-1.352,6.665L48.059,67.654C46.985,68.791,45.452,69.438,43.779,69.438z M29.719,47.25
		c-0.899,0-1.537,0.428-1.896,1.272c-0.372,0.852-0.228,1.592,0.42,2.217l14.048,14.048c0.429,0.451,0.903,0.651,1.487,0.651
		c0.569,0,1.058-0.198,1.412-0.572l14.076-14.079c0.687-0.664,0.841-1.408,0.481-2.233c-0.37-0.87-1.01-1.304-1.909-1.304h-7.98
		V33.241c0-0.557-0.205-1.044-0.609-1.448c-0.413-0.414-0.889-0.614-1.454-0.614h-8.034c-0.558,0-1.046,0.206-1.452,0.612
		c-0.404,0.405-0.61,0.893-0.61,1.45V47.25H29.719z"/>
</g>
<g>
	<path d="M31.646,60.278c0.387-0.387,0.581-0.845,0.581-1.375c0-0.528-0.194-0.987-0.581-1.375
		c-0.387-0.387-0.845-0.579-1.374-0.579c-0.53,0-0.988,0.192-1.375,0.579c-0.388,0.388-0.581,0.847-0.581,1.375
		c0,0.53,0.193,0.988,0.581,1.375c0.387,0.388,0.845,0.58,1.375,0.58C30.801,60.858,31.259,60.666,31.646,60.278z"/>
</g>
<g>
	<path d="M23.247,60.278c0.387-0.387,0.581-0.845,0.581-1.375c0-0.528-0.194-0.987-0.581-1.375
		c-0.387-0.387-0.845-0.579-1.374-0.579c-0.53,0-0.988,0.192-1.375,0.579c-0.388,0.388-0.581,0.847-0.581,1.375
		c0,0.53,0.193,0.988,0.581,1.375c0.387,0.388,0.845,0.58,1.375,0.58C22.402,60.858,22.86,60.666,23.247,60.278z"/>
</g>
<g>
	<path fill="#9A999E" d="M14.847,60.278c0.387-0.387,0.581-0.845,0.581-1.375c0-0.528-0.194-0.987-0.581-1.375
		c-0.387-0.387-0.845-0.579-1.374-0.579c-0.53,0-0.988,0.192-1.375,0.579c-0.388,0.388-0.581,0.847-0.581,1.375
		c0,0.53,0.193,0.988,0.581,1.375c0.387,0.388,0.845,0.58,1.375,0.58C14.002,60.858,14.46,60.666,14.847,60.278z"/>
</g>
<g>
	<path fill="#4F8E3A" d="M27.867,48.559c0.356-0.837,0.974-1.255,1.853-1.255h8.035V33.241c0-0.545,0.199-1.015,0.596-1.412
		c0.398-0.398,0.87-0.596,1.413-0.596h8.034c0.545,0,1.017,0.197,1.413,0.596c0.396,0.397,0.598,0.867,0.598,1.412v14.063h8.034
		c0.88,0,1.496,0.418,1.853,1.255c0.354,0.815,0.209,1.538-0.439,2.166L45.191,64.787c-0.375,0.396-0.846,0.596-1.412,0.596
		c-0.563,0-1.034-0.198-1.411-0.596L28.306,50.725C27.659,50.097,27.51,49.375,27.867,48.559z"/>
</g>
<g enable-background="new    ">
	<path d="M15.185,71.583c0,0.194-0.046,0.389-0.14,0.584c-0.093,0.196-0.227,0.372-0.401,0.529
		c-0.174,0.156-0.385,0.284-0.631,0.384c-0.246,0.099-0.522,0.147-0.828,0.147c-0.163,0-0.314-0.01-0.453-0.028
		c-0.14-0.02-0.271-0.046-0.393-0.079c-0.122-0.032-0.239-0.073-0.352-0.122c-0.112-0.048-0.225-0.102-0.337-0.159l0.256-0.797
		c0.073,0.051,0.171,0.104,0.293,0.163c0.122,0.058,0.254,0.112,0.398,0.163c0.144,0.05,0.288,0.092,0.433,0.124
		c0.145,0.033,0.278,0.05,0.398,0.05c0.136,0,0.247-0.009,0.334-0.026c0.087-0.018,0.166-0.041,0.235-0.072
		c0.077-0.031,0.139-0.108,0.186-0.232c0.046-0.124,0.069-0.285,0.069-0.482c0-0.183-0.06-0.327-0.18-0.437
		c-0.12-0.108-0.27-0.202-0.45-0.281s-0.375-0.159-0.584-0.238c-0.209-0.079-0.404-0.183-0.584-0.309s-0.33-0.287-0.45-0.485
		c-0.12-0.197-0.18-0.457-0.18-0.778c0-0.155,0.041-0.318,0.122-0.491c0.081-0.173,0.199-0.331,0.354-0.477
		c0.155-0.146,0.347-0.265,0.575-0.357c0.229-0.093,0.488-0.14,0.779-0.14c0.233,0,0.457,0.012,0.671,0.035
		c0.215,0.023,0.423,0.054,0.625,0.093l-0.163,0.796c-0.093-0.034-0.199-0.067-0.317-0.099s-0.238-0.058-0.36-0.081
		s-0.241-0.042-0.357-0.056s-0.219-0.02-0.308-0.02c-0.101,0-0.194,0.005-0.279,0.014c-0.085,0.01-0.163,0.036-0.233,0.079
		c-0.066,0.038-0.113,0.105-0.142,0.2c-0.029,0.095-0.044,0.208-0.044,0.34c0,0.136,0.035,0.248,0.105,0.337
		c0.07,0.09,0.162,0.168,0.276,0.235c0.114,0.068,0.244,0.13,0.39,0.187c0.145,0.056,0.294,0.116,0.447,0.18
		c0.153,0.064,0.302,0.138,0.448,0.222c0.145,0.083,0.275,0.186,0.389,0.308s0.207,0.271,0.276,0.444
		C15.15,71.124,15.185,71.334,15.185,71.583z"/>
	<path d="M17.509,69.496c0.17,0,0.336,0.024,0.497,0.073c0.161,0.048,0.309,0.13,0.445,0.244c0.135,0.114,0.252,0.268,0.352,0.459
		c0.099,0.191,0.173,0.431,0.224,0.718v0.047c-0.031,0.042-0.073,0.081-0.125,0.116c-0.052,0.034-0.121,0.064-0.206,0.09
		c-0.085,0.025-0.19,0.049-0.314,0.069c-0.124,0.021-0.273,0.038-0.448,0.05l-1.127,0.087V71.6c0,0.279,0.074,0.51,0.221,0.691
		c0.147,0.183,0.368,0.273,0.663,0.273c0.12,0,0.246-0.013,0.378-0.038s0.257-0.055,0.375-0.09s0.227-0.07,0.325-0.107
		c0.099-0.037,0.173-0.069,0.224-0.096l0.087,0.261c-0.108,0.082-0.23,0.166-0.366,0.253c-0.136,0.088-0.281,0.166-0.436,0.235
		c-0.155,0.07-0.319,0.127-0.491,0.172c-0.173,0.045-0.35,0.066-0.532,0.066c-0.213,0-0.412-0.031-0.596-0.096
		c-0.184-0.063-0.343-0.165-0.477-0.305c-0.133-0.14-0.239-0.322-0.316-0.547c-0.078-0.225-0.116-0.497-0.116-0.819
		c0-0.36,0.044-0.665,0.133-0.915c0.089-0.25,0.213-0.451,0.372-0.604s0.346-0.265,0.561-0.334
		C17.03,69.531,17.261,69.496,17.509,69.496z M17.027,70.1c-0.027,0.023-0.053,0.067-0.078,0.131
		c-0.025,0.064-0.048,0.14-0.067,0.227c-0.02,0.088-0.035,0.179-0.046,0.273c-0.012,0.095-0.018,0.188-0.018,0.276l1.122-0.053
		c-0.012-0.104-0.029-0.213-0.052-0.325s-0.057-0.215-0.102-0.308c-0.045-0.094-0.1-0.171-0.166-0.233
		c-0.066-0.062-0.145-0.093-0.238-0.093c-0.066,0-0.127,0.008-0.186,0.023C17.137,70.035,17.081,70.062,17.027,70.1z"/>
	<path d="M19.957,70.066l-0.384-0.128v-0.215l1.103-0.779h0.28l0.012,0.628h1.087l-0.046,0.395
		c-0.082,0.016-0.181,0.029-0.299,0.041s-0.232,0.021-0.34,0.029c-0.128,0.012-0.259,0.023-0.395,0.035v2.011
		c0,0.128,0.023,0.235,0.07,0.322s0.143,0.131,0.291,0.131c0.039,0,0.091-0.002,0.157-0.006s0.135-0.01,0.207-0.018
		s0.141-0.017,0.209-0.025c0.068-0.01,0.125-0.019,0.172-0.026v0.296c-0.085,0.055-0.184,0.109-0.297,0.166
		c-0.112,0.056-0.231,0.106-0.357,0.151c-0.126,0.044-0.253,0.08-0.381,0.107c-0.128,0.026-0.25,0.04-0.368,0.04
		c-0.089,0-0.177-0.009-0.263-0.025c-0.086-0.018-0.163-0.052-0.231-0.103c-0.068-0.05-0.123-0.12-0.164-0.212
		c-0.041-0.091-0.062-0.21-0.062-0.357V70.066z"/>
	<path d="M23.763,69.572v2.4c0,0.213,0.034,0.371,0.103,0.474s0.185,0.154,0.349,0.154c0.059,0,0.123-0.009,0.193-0.026
		c0.071-0.018,0.143-0.041,0.217-0.07c0.074-0.028,0.146-0.062,0.214-0.099c0.069-0.036,0.132-0.076,0.191-0.119v-2.714h1.017v3.58
		h-0.913l-0.093-0.419H25.03c-0.07,0.047-0.154,0.099-0.253,0.154c-0.099,0.057-0.206,0.11-0.32,0.163
		c-0.114,0.052-0.234,0.096-0.36,0.131c-0.126,0.034-0.249,0.052-0.369,0.052c-0.136,0-0.263-0.022-0.381-0.066
		c-0.118-0.045-0.222-0.11-0.311-0.197c-0.089-0.088-0.16-0.198-0.212-0.332c-0.053-0.134-0.079-0.287-0.079-0.462v-2.604H23.763z"
		/>
	<path d="M28.198,69.879c0.143-0.104,0.292-0.194,0.444-0.271c0.153-0.075,0.334-0.113,0.543-0.113c0.186,0,0.365,0.032,0.538,0.097
		c0.172,0.063,0.326,0.165,0.459,0.305c0.133,0.14,0.24,0.32,0.319,0.544c0.08,0.223,0.119,0.494,0.119,0.816
		c0,0.31-0.043,0.586-0.13,0.828c-0.087,0.242-0.211,0.447-0.372,0.616c-0.161,0.168-0.356,0.297-0.587,0.387
		c-0.231,0.089-0.491,0.133-0.782,0.133c-0.097,0-0.196-0.007-0.297-0.02c-0.101-0.014-0.186-0.03-0.255-0.05
		c0,0.035,0.002,0.095,0.006,0.181c0.003,0.085,0.006,0.172,0.006,0.261v1.843l-1.018,0.169v-5.929l0.901-0.157L28.198,69.879z
		 M29.564,71.295c0-0.398-0.065-0.692-0.196-0.882s-0.307-0.284-0.528-0.284c-0.113,0-0.221,0.012-0.324,0.035
		c-0.103,0.023-0.205,0.056-0.306,0.099v2.349c0.077,0.019,0.154,0.032,0.23,0.04c0.076,0.008,0.157,0.012,0.242,0.012
		c0.128,0,0.249-0.012,0.362-0.035c0.113-0.022,0.196-0.062,0.251-0.115c0.062-0.063,0.123-0.198,0.181-0.409
		C29.535,71.893,29.564,71.624,29.564,71.295z"/>
	<path d="M36.794,73.152l-0.413-4.086l-1.836,4.086h-0.314l-1.918-4.086l-0.349,4.086h-0.599l0.517-5.394h0.971l1.784,3.795
		l1.697-3.795h0.948l0.563,5.394H36.794z"/>
	<path d="M39.322,74.89c-0.182,0.225-0.363,0.39-0.543,0.496c-0.18,0.106-0.363,0.16-0.549,0.16c-0.097,0-0.202-0.008-0.314-0.023
		s-0.202-0.034-0.268-0.058v-0.343h0.076c0.124,0,0.268-0.035,0.43-0.105c0.163-0.069,0.318-0.17,0.465-0.302
		c0.082-0.069,0.176-0.162,0.285-0.276c0.108-0.114,0.221-0.239,0.337-0.375s0.229-0.274,0.34-0.418s0.21-0.281,0.3-0.413
		c-0.14-0.422-0.277-0.814-0.413-1.177s-0.262-0.682-0.378-0.959s-0.22-0.504-0.311-0.68c-0.091-0.177-0.164-0.292-0.218-0.346
		c-0.05-0.051-0.103-0.083-0.157-0.097c-0.054-0.013-0.097-0.02-0.128-0.02h-0.029v-0.338c0.043-0.012,0.098-0.021,0.166-0.031
		c0.067-0.01,0.138-0.019,0.212-0.026s0.146-0.015,0.215-0.021s0.127-0.009,0.174-0.009c0.101,0,0.191,0.013,0.272,0.038
		c0.082,0.025,0.149,0.068,0.204,0.131c0.069,0.069,0.146,0.184,0.227,0.343s0.165,0.35,0.253,0.572
		c0.087,0.223,0.176,0.471,0.268,0.744c0.091,0.273,0.179,0.561,0.264,0.863h0.018c0.117-0.187,0.211-0.362,0.282-0.529
		c0.071-0.166,0.129-0.331,0.171-0.494c0.043-0.162,0.072-0.325,0.088-0.488c0.016-0.162,0.023-0.335,0.023-0.517
		c0-0.051-0.004-0.104-0.01-0.16s-0.012-0.11-0.02-0.163c-0.008-0.052-0.017-0.1-0.026-0.143c-0.01-0.042-0.019-0.073-0.026-0.093
		l0.791-0.14c0.02,0.055,0.037,0.135,0.053,0.241c0.015,0.107,0.022,0.209,0.022,0.306c0,0.256-0.04,0.515-0.122,0.775
		c-0.081,0.262-0.188,0.522-0.316,0.782c-0.131,0.26-0.273,0.518-0.43,0.772c-0.158,0.256-0.312,0.506-0.463,0.75
		c-0.162,0.252-0.297,0.462-0.404,0.631c-0.105,0.169-0.202,0.314-0.287,0.438c-0.086,0.124-0.168,0.239-0.247,0.346
		C39.52,74.645,39.428,74.762,39.322,74.89z"/>
	<path d="M43.855,70.67l0.141-0.029c0.135-0.031,0.263-0.07,0.383-0.119s0.224-0.12,0.311-0.215c0.088-0.096,0.156-0.22,0.207-0.375
		s0.075-0.353,0.075-0.593c0-0.36-0.081-0.623-0.244-0.788c-0.163-0.164-0.376-0.247-0.64-0.247c-0.065,0-0.133,0.002-0.2,0.006
		s-0.139,0.012-0.212,0.023v4.818h-1.035v-5.33c0.109-0.008,0.227-0.015,0.355-0.022c0.127-0.008,0.26-0.015,0.398-0.021
		c0.137-0.006,0.274-0.01,0.412-0.012c0.137-0.002,0.27-0.003,0.398-0.003c0.313,0,0.586,0.036,0.816,0.107s0.421,0.174,0.572,0.305
		c0.15,0.132,0.264,0.292,0.337,0.479c0.073,0.188,0.11,0.4,0.11,0.637c0,0.248-0.041,0.48-0.121,0.697
		c-0.082,0.218-0.207,0.407-0.375,0.57c-0.169,0.162-0.385,0.29-0.646,0.383c-0.261,0.094-0.572,0.14-0.932,0.14H43.92L43.855,70.67
		z"/>
	<path d="M48.941,70.379c-0.078-0.027-0.16-0.05-0.25-0.066c-0.089-0.018-0.174-0.026-0.256-0.026c-0.059,0-0.11,0.005-0.156,0.015
		c-0.047,0.01-0.09,0.025-0.131,0.049s-0.082,0.055-0.123,0.094c-0.04,0.038-0.086,0.085-0.136,0.139v2.569h-1.018v-3.58h0.913
		l0.087,0.569h0.006c0.026-0.043,0.06-0.092,0.099-0.148c0.039-0.056,0.08-0.112,0.125-0.168c0.045-0.057,0.091-0.107,0.14-0.154
		c0.048-0.047,0.098-0.079,0.147-0.099c0.09-0.031,0.19-0.052,0.303-0.062s0.234-0.015,0.366-0.015L48.941,70.379z"/>
	<path d="M51.249,73.221c-0.581,0-1.026-0.157-1.334-0.474c-0.308-0.315-0.462-0.777-0.462-1.386c0-0.287,0.037-0.546,0.113-0.776
		c0.075-0.23,0.189-0.426,0.34-0.587c0.151-0.16,0.339-0.284,0.564-0.372c0.225-0.087,0.484-0.131,0.778-0.131
		c0.593,0,1.04,0.161,1.343,0.482c0.302,0.322,0.453,0.779,0.453,1.372c0,0.291-0.038,0.551-0.113,0.781
		c-0.076,0.231-0.189,0.427-0.34,0.588c-0.151,0.16-0.34,0.284-0.564,0.372C51.803,73.178,51.543,73.221,51.249,73.221z
		 M50.511,71.356c0,0.469,0.056,0.813,0.169,1.034c0.111,0.221,0.3,0.332,0.563,0.332c0.101,0,0.195-0.009,0.284-0.026
		c0.09-0.018,0.163-0.044,0.221-0.079c0.039-0.019,0.073-0.066,0.103-0.142c0.028-0.076,0.054-0.17,0.075-0.282
		s0.037-0.24,0.047-0.384s0.014-0.292,0.014-0.447c0-0.457-0.057-0.799-0.171-1.026c-0.114-0.227-0.3-0.34-0.555-0.34
		c-0.097,0-0.192,0.01-0.285,0.029s-0.175,0.051-0.244,0.093c-0.038,0.023-0.072,0.072-0.102,0.146s-0.052,0.167-0.069,0.279
		s-0.03,0.238-0.038,0.378C50.515,71.059,50.511,71.205,50.511,71.356z"/>
	<path d="M53.945,69.572h1.018v3.446c0,0.314-0.023,0.6-0.069,0.857c-0.047,0.258-0.117,0.492-0.212,0.703
		c-0.096,0.211-0.217,0.405-0.363,0.581c-0.147,0.177-0.322,0.34-0.523,0.491l-0.291-0.273c0.094-0.112,0.168-0.232,0.225-0.36
		c0.056-0.127,0.1-0.268,0.133-0.421s0.056-0.322,0.067-0.509c0.012-0.186,0.017-0.392,0.017-0.616V69.572z M54.434,67.543
		l0.646,0.668l-0.646,0.674l-0.639-0.674L54.434,67.543z"/>
	<path d="M57.619,69.496c0.17,0,0.336,0.024,0.497,0.073c0.161,0.048,0.31,0.13,0.444,0.244c0.136,0.114,0.253,0.268,0.352,0.459
		c0.1,0.191,0.174,0.431,0.225,0.718v0.047c-0.031,0.042-0.073,0.081-0.125,0.116c-0.053,0.034-0.121,0.064-0.207,0.09
		c-0.085,0.025-0.189,0.049-0.313,0.069c-0.124,0.021-0.273,0.038-0.448,0.05l-1.127,0.087V71.6c0,0.279,0.074,0.51,0.221,0.691
		c0.147,0.183,0.368,0.273,0.662,0.273c0.121,0,0.246-0.013,0.379-0.038c0.131-0.025,0.256-0.055,0.375-0.09
		c0.117-0.035,0.227-0.07,0.324-0.107c0.1-0.037,0.174-0.069,0.225-0.096l0.087,0.261c-0.108,0.082-0.23,0.166-0.366,0.253
		c-0.136,0.088-0.281,0.166-0.436,0.235c-0.155,0.07-0.318,0.127-0.491,0.172s-0.351,0.066-0.532,0.066
		c-0.213,0-0.412-0.031-0.596-0.096c-0.184-0.063-0.343-0.165-0.477-0.305c-0.133-0.14-0.239-0.322-0.316-0.547
		c-0.078-0.225-0.116-0.497-0.116-0.819c0-0.36,0.044-0.665,0.134-0.915c0.089-0.25,0.213-0.451,0.371-0.604
		c0.159-0.153,0.346-0.265,0.562-0.334C57.14,69.531,57.371,69.496,57.619,69.496z M57.137,70.1
		c-0.027,0.023-0.053,0.067-0.078,0.131c-0.025,0.064-0.048,0.14-0.066,0.227c-0.02,0.088-0.035,0.179-0.047,0.273
		s-0.018,0.188-0.018,0.276l1.121-0.053c-0.012-0.104-0.028-0.213-0.052-0.325s-0.058-0.215-0.102-0.308
		c-0.045-0.094-0.101-0.171-0.166-0.233c-0.065-0.062-0.146-0.093-0.238-0.093c-0.065,0-0.128,0.008-0.186,0.023
		C57.247,70.035,57.191,70.062,57.137,70.1z"/>
	<path d="M62.576,70.338c-0.127-0.065-0.279-0.129-0.455-0.191c-0.178-0.062-0.367-0.093-0.573-0.093
		c-0.085,0-0.171,0.009-0.256,0.026s-0.159,0.05-0.221,0.096c-0.069,0.051-0.126,0.171-0.169,0.359
		c-0.042,0.188-0.063,0.483-0.063,0.885c0,0.222,0.016,0.409,0.046,0.563c0.031,0.153,0.078,0.278,0.141,0.373
		c0.062,0.096,0.139,0.164,0.232,0.205c0.092,0.04,0.199,0.061,0.319,0.061c0.189,0,0.388-0.02,0.593-0.061s0.391-0.096,0.559-0.166
		l0.092,0.262c-0.197,0.161-0.423,0.295-0.677,0.402s-0.532,0.161-0.834,0.161c-0.213,0-0.413-0.031-0.602-0.096
		c-0.188-0.063-0.35-0.165-0.485-0.305s-0.243-0.322-0.322-0.547c-0.08-0.225-0.119-0.497-0.119-0.819
		c0-0.306,0.041-0.58,0.125-0.822c0.083-0.242,0.204-0.447,0.363-0.616c0.158-0.169,0.355-0.297,0.593-0.387
		c0.236-0.089,0.507-0.134,0.813-0.134c0.186,0,0.373,0.014,0.561,0.041c0.188,0.026,0.359,0.058,0.515,0.092L62.576,70.338z"/>
	<path d="M63.576,70.066l-0.383-0.128v-0.215l1.103-0.779h0.28l0.012,0.628h1.087l-0.046,0.395c-0.082,0.016-0.182,0.029-0.3,0.041
		s-0.231,0.021-0.341,0.029c-0.127,0.012-0.259,0.023-0.395,0.035v2.011c0,0.128,0.023,0.235,0.07,0.322
		c0.046,0.087,0.143,0.131,0.29,0.131c0.038,0,0.091-0.002,0.157-0.006c0.065-0.004,0.135-0.01,0.206-0.018s0.142-0.017,0.209-0.025
		c0.067-0.01,0.125-0.019,0.172-0.026v0.296c-0.085,0.055-0.185,0.109-0.297,0.166c-0.112,0.056-0.231,0.106-0.357,0.151
		c-0.126,0.044-0.253,0.08-0.381,0.107c-0.128,0.026-0.251,0.04-0.368,0.04c-0.089,0-0.177-0.009-0.262-0.025
		c-0.086-0.018-0.164-0.052-0.231-0.103c-0.068-0.05-0.123-0.12-0.163-0.212c-0.041-0.091-0.063-0.21-0.063-0.357V70.066z"/>
</g>
</svg>
